<svg width="24" height="24" viewBox="0 0 24 24" fill="none" xmlns="http://www.w3.org/2000/svg">
<path d="M11.4013 19H12.6053C13 19 13.2961 18.7632 13.3816 18.375L13.7105 16.9868C13.9342 16.9079 14.1447 16.8224 14.3421 16.7303L15.5592 17.4803C15.8816 17.6842 16.2697 17.6513 16.5395 17.3816L17.3882 16.5329C17.6579 16.2632 17.6974 15.8618 17.4803 15.5329L16.7368 14.3289C16.8289 14.1316 16.9145 13.9211 16.9803 13.7171L18.3816 13.3882C18.7697 13.3026 19 13.0066 19 12.6118V11.4276C19 11.0395 18.7697 10.7368 18.3816 10.6513L16.9934 10.3158C16.9211 10.0855 16.8289 9.88158 16.75 9.70395L17.4934 8.47368C17.7039 8.13816 17.6776 7.76316 17.3947 7.48684L16.5395 6.63816C16.2632 6.38816 15.9145 6.34211 15.5789 6.52632L14.3421 7.28947C14.1513 7.19737 13.9408 7.11184 13.7171 7.03289L13.3816 5.625C13.2961 5.23684 13 5 12.6053 5H11.4013C11 5 10.7039 5.23684 10.6184 5.625L10.2895 7.02632C10.0658 7.09868 9.84868 7.18421 9.65132 7.28289L8.42105 6.52632C8.08553 6.34211 7.74342 6.38158 7.46053 6.63816L6.60526 7.48684C6.32237 7.76316 6.29605 8.13816 6.50658 8.47368L7.25 9.70395C7.17105 9.88158 7.08553 10.0855 7.00658 10.3158L5.61842 10.6513C5.23026 10.7368 5 11.0395 5 11.4276V12.6118C5 13.0066 5.23026 13.3026 5.61842 13.3882L7.01974 13.7171C7.08553 13.9211 7.17105 14.1316 7.26316 14.3289L6.51974 15.5329C6.30263 15.8618 6.34211 16.2632 6.61842 16.5329L7.46053 17.3816C7.73026 17.6513 8.11842 17.6842 8.44737 17.4803L9.65789 16.7303C9.85526 16.8224 10.0658 16.9079 10.2895 16.9868L10.6184 18.375C10.7039 18.7632 11 19 11.4013 19ZM12 14.3026C10.7368 14.3026 9.70395 13.2632 9.70395 11.9934C9.70395 10.7368 10.7368 9.70395 12 9.70395C13.2697 9.70395 14.3026 10.7368 14.3026 11.9934C14.3026 13.2632 13.2697 14.3026 12 14.3026Z" fill="#333333"/>
</svg>
