<svg width="20" height="19" viewBox="0 0 20 19" fill="none" xmlns="http://www.w3.org/2000/svg">
<g id="Group 3494">
<path id="&#244;&#128;&#150;&#130;" d="M2.86746 8.69337H7.32591C7.94514 8.69337 8.41119 8.53694 8.72406 8.22406C9.03694 7.90467 9.19337 7.42232 9.19337 6.77702V2.40657C9.19337 1.76127 9.03694 1.28218 8.72406 0.96931C8.41119 0.656437 7.94514 0.5 7.32591 0.5H2.86746C2.24823 0.5 1.78218 0.656437 1.46931 0.96931C1.15644 1.28218 1 1.76127 1 2.40657V6.77702C1 7.42232 1.15644 7.90467 1.46931 8.22406C1.78218 8.53694 2.24823 8.69337 2.86746 8.69337ZM2.88702 7.31477C2.71754 7.31477 2.59044 7.26915 2.5057 7.17789C2.42097 7.08664 2.3786 6.95301 2.3786 6.77702V2.40657C2.3786 2.23058 2.42097 2.10022 2.5057 2.01548C2.59044 1.92423 2.71754 1.8786 2.88702 1.8786H7.29658C7.46605 1.8786 7.59316 1.92423 7.67789 2.01548C7.76915 2.10022 7.81477 2.23058 7.81477 2.40657V6.77702C7.81477 6.95301 7.76915 7.08664 7.67789 7.17789C7.59316 7.26915 7.46605 7.31477 7.29658 7.31477H2.88702ZM4.25584 5.6233H5.92776C6.05812 5.6233 6.1233 5.54834 6.1233 5.39842V3.77539C6.1233 3.63199 6.05812 3.56029 5.92776 3.56029H4.25584C4.12548 3.56029 4.06029 3.63199 4.06029 3.77539V5.39842C4.06029 5.54834 4.12548 5.6233 4.25584 5.6233ZM12.6839 8.69337H17.1325C17.7518 8.69337 18.2178 8.53694 18.5307 8.22406C18.8436 7.90467 19 7.42232 19 6.77702V2.40657C19 1.76127 18.8436 1.28218 18.5307 0.96931C18.2178 0.656437 17.7518 0.5 17.1325 0.5H12.6839C12.0581 0.5 11.5888 0.656437 11.2759 0.96931C10.9631 1.28218 10.8066 1.76127 10.8066 2.40657V6.77702C10.8066 7.42232 10.9631 7.90467 11.2759 8.22406C11.5888 8.53694 12.0581 8.69337 12.6839 8.69337ZM12.7034 7.31477C12.5274 7.31477 12.3971 7.26915 12.3123 7.17789C12.2276 7.08664 12.1852 6.95301 12.1852 6.77702V2.40657C12.1852 2.23058 12.2276 2.10022 12.3123 2.01548C12.3971 1.92423 12.5274 1.8786 12.7034 1.8786H17.113C17.289 1.8786 17.4161 1.92423 17.4943 2.01548C17.579 2.10022 17.6214 2.23058 17.6214 2.40657V6.77702C17.6214 6.95301 17.579 7.08664 17.4943 7.17789C17.4161 7.26915 17.289 7.31477 17.113 7.31477H12.7034ZM14.1211 5.6233H15.793C15.9299 5.6233 15.9984 5.54834 15.9984 5.39842V3.77539C15.9984 3.63199 15.9299 3.56029 15.793 3.56029H14.1211C13.9973 3.56029 13.9354 3.63199 13.9354 3.77539V5.39842C13.9354 5.54834 13.9973 5.6233 14.1211 5.6233ZM2.86746 18.5H7.32591C7.94514 18.5 8.41119 18.3436 8.72406 18.0307C9.03694 17.7178 9.19337 17.2387 9.19337 16.5934V12.2132C9.19337 11.5744 9.03694 11.0986 8.72406 10.7857C8.41119 10.4663 7.94514 10.3066 7.32591 10.3066H2.86746C2.24823 10.3066 1.78218 10.4663 1.46931 10.7857C1.15644 11.0986 1 11.5744 1 12.2132V16.5934C1 17.2387 1.15644 17.7178 1.46931 18.0307C1.78218 18.3436 2.24823 18.5 2.86746 18.5ZM2.88702 17.1214C2.71754 17.1214 2.59044 17.0758 2.5057 16.9845C2.42097 16.8998 2.3786 16.7694 2.3786 16.5934V12.223C2.3786 12.0405 2.42097 11.9068 2.5057 11.8221C2.59044 11.7309 2.71754 11.6852 2.88702 11.6852H7.29658C7.46605 11.6852 7.59316 11.7309 7.67789 11.8221C7.76915 11.9068 7.81477 12.0405 7.81477 12.223V16.5934C7.81477 16.7694 7.76915 16.8998 7.67789 16.9845C7.59316 17.0758 7.46605 17.1214 7.29658 17.1214H2.88702ZM4.25584 15.4397H5.92776C6.05812 15.4397 6.1233 15.3615 6.1233 15.2051V13.5918C6.1233 13.4484 6.05812 13.3767 5.92776 13.3767H4.25584C4.12548 13.3767 4.06029 13.4484 4.06029 13.5918V15.2051C4.06029 15.3615 4.12548 15.4397 4.25584 15.4397ZM11.4715 12.8389H13.1434C13.2738 12.8389 13.3389 12.764 13.3389 12.6141V10.991C13.3389 10.8476 13.2738 10.7759 13.1434 10.7759H11.4715C11.3411 10.7759 11.2759 10.8476 11.2759 10.991V12.6141C11.2759 12.764 11.3411 12.8389 11.4715 12.8389ZM16.6632 12.8389H18.3351C18.4655 12.8389 18.5307 12.764 18.5307 12.6141V10.991C18.5307 10.8476 18.4655 10.7759 18.3351 10.7759H16.6632C16.5329 10.7759 16.4677 10.8476 16.4677 10.991V12.6141C16.4677 12.764 16.5329 12.8389 16.6632 12.8389ZM14.0918 15.4397H15.7637C15.8941 15.4397 15.9593 15.3615 15.9593 15.2051V13.5918C15.9593 13.4484 15.8941 13.3767 15.7637 13.3767H14.0918C13.9614 13.3767 13.8963 13.4484 13.8963 13.5918V15.2051C13.8963 15.3615 13.9614 15.4397 14.0918 15.4397ZM11.4715 18.0307H13.1434C13.2738 18.0307 13.3389 17.9557 13.3389 17.8058V16.1828C13.3389 16.0394 13.2738 15.9677 13.1434 15.9677H11.4715C11.3411 15.9677 11.2759 16.0394 11.2759 16.1828V17.8058C11.2759 17.9557 11.3411 18.0307 11.4715 18.0307ZM16.6632 18.0307H18.3351C18.4655 18.0307 18.5307 17.9557 18.5307 17.8058V16.1828C18.5307 16.0394 18.4655 15.9677 18.3351 15.9677H16.6632C16.5329 15.9677 16.4677 16.0394 16.4677 16.1828V17.8058C16.4677 17.9557 16.5329 18.0307 16.6632 18.0307Z" fill="#111111" stroke="#111111" stroke-width="0.1"/>
</g>
</svg>
