<svg width="36" height="36" viewBox="0 0 36 36" fill="none" xmlns="http://www.w3.org/2000/svg">
<rect width="36" height="36" rx="10" fill="#EEEEEE"/>
<path fill-rule="evenodd" clip-rule="evenodd" d="M24.7092 26.1755C25.991 26.1755 26.7942 25.2527 26.7942 24.0906C26.7942 23.7402 26.7087 23.3899 26.5208 23.0652L19.7959 11.0596C19.4114 10.3674 18.7021 10 18.0015 10C17.2922 10 16.583 10.3674 16.1985 11.0596L9.48218 23.0737C9.30273 23.3984 9.2002 23.7402 9.2002 24.0906C9.2002 25.2527 10.0034 26.1755 11.2852 26.1755H24.7092ZM18.0015 20.4675C17.5571 20.4675 17.3179 20.2112 17.3093 19.7583L17.1897 15.1099C17.1812 14.657 17.5144 14.3323 17.9929 14.3323C18.4629 14.3323 18.8132 14.6655 18.8047 15.1184L18.6851 19.7583C18.6765 20.2197 18.4287 20.4675 18.0015 20.4675ZM17.053 22.4158C17.053 22.9199 17.4973 23.3301 18.0015 23.3301C18.5142 23.3301 18.9585 22.9285 18.9585 22.4158C18.9585 21.8945 18.5227 21.4929 18.0015 21.4929C17.4888 21.4929 17.053 21.9031 17.053 22.4158Z" fill="#111111"/>
</svg>
