<svg width="24" height="24" viewBox="0 0 24 24" fill="none" xmlns="http://www.w3.org/2000/svg">
<path d="M12.4193 16.4742C12.6953 16.8498 12.9926 17 13.3535 17C13.7144 17 14.0223 16.8283 14.2452 16.4742L19.2346 8.53433C19.362 8.30901 19.5 8.06223 19.5 7.82618C19.5 7.32189 19.0648 7 18.5977 7C18.3217 7 18.0456 7.17167 17.8439 7.49356L13.311 14.8541L11.1561 12.0429C10.8907 11.6888 10.6571 11.5923 10.3493 11.5923C9.87155 11.5923 9.5 11.9893 9.5 12.4721C9.5 12.7189 9.59554 12.9549 9.75478 13.1695L12.4193 16.4742Z" fill="black"/>
<path fill-rule="evenodd" clip-rule="evenodd" d="M10.3538 15.5057L9.74522 16.4742C9.52229 16.8283 9.21444 17 8.8535 17C8.49257 17 8.19533 16.8498 7.91932 16.4742L5.25478 13.1695C5.09554 12.9549 5 12.7189 5 12.4721C5 11.9893 5.37155 11.5923 5.84926 11.5923C6.15711 11.5923 6.39066 11.6888 6.65605 12.0429L8.81104 14.8541L9.25162 14.1387L10.3538 15.5057ZM10.9165 14.6103L11.911 13.0277L11.1561 12.0429C11.0219 11.8639 10.8958 11.7507 10.7642 11.6825L9.80789 13.2354L10.9165 14.6103ZM11.2892 10.83C11.5633 10.9867 11.7764 11.2042 11.9527 11.4384L12.4786 12.1245L14.7346 8.53433C14.862 8.30901 15 8.06223 15 7.82618C15 7.32189 14.5648 7 14.0977 7C13.8217 7 13.5456 7.17167 13.3439 7.49356L11.2892 10.83Z" fill="black"/>
</svg>
