<svg width="24" height="24" viewBox="0 0 24 24" fill="none" xmlns="http://www.w3.org/2000/svg">
<path d="M18.3182 8.60908H16.1364V7.5C16.1364 6.94772 15.6887 6.5 15.1364 6.5H5.49997C4.94772 6.5 4.50002 6.94763 4.50001 7.49988C4.49997 9.06321 4.50008 10.9748 4.50008 11.3V14.1545C4.50008 14.7068 4.94779 15.1545 5.50008 15.1545H5.95462C5.95462 16.3618 6.92916 17.3363 8.13642 17.3363C9.34369 17.3363 10.3182 16.3618 10.3182 15.1545H14.6818C14.6818 16.3618 15.6564 17.3363 16.8637 17.3363C18.0709 17.3363 19.0455 16.3618 19.0455 15.1545H20.5V11.5182L18.3182 8.60908ZM8.13642 16.2454C7.53279 16.2454 7.04552 15.7581 7.04552 15.1545C7.04552 14.5509 7.53279 14.0636 8.13642 14.0636C8.74006 14.0636 9.22733 14.5509 9.22733 15.1545C9.22733 15.7581 8.74006 16.2454 8.13642 16.2454ZM17.9546 9.69999L19.38 11.5182H16.1364V9.69999H17.9546ZM16.8637 16.2454C16.26 16.2454 15.7728 15.7581 15.7728 15.1545C15.7728 14.5509 16.26 14.0636 16.8637 14.0636C17.4673 14.0636 17.9546 14.5509 17.9546 15.1545C17.9546 15.7581 17.4673 16.2454 16.8637 16.2454Z" fill="#333333"/>
</svg>
