<svg width="25" height="24" viewBox="0 0 25 24" fill="none" xmlns="http://www.w3.org/2000/svg">
<g id="Frame 4777">
<path id="Vector" d="M14.8207 4.42076L12.7645 3.2303L13.3576 2.19856C13.383 2.15316 13.4173 2.11333 13.4583 2.08145C13.4993 2.04956 13.5463 2.02627 13.5964 2.01295C13.6466 1.99962 13.6989 1.99654 13.7502 2.00389C13.8016 2.01123 13.851 2.02885 13.8954 2.0557L15.2715 2.84935C15.3168 2.87483 15.3565 2.90917 15.3882 2.95033C15.42 2.99149 15.4432 3.03863 15.4565 3.08896C15.4698 3.13929 15.4728 3.19179 15.4655 3.24333C15.4582 3.29487 15.4406 3.34442 15.4139 3.38903L14.8207 4.42076ZM8.75483 10.9921L10.1309 11.7858C10.1915 11.8199 10.2593 11.8389 10.3286 11.8413C10.3977 11.8409 10.4654 11.8224 10.525 11.7876C10.5847 11.7528 10.6342 11.7029 10.6687 11.6429L11.6573 9.92072L9.60106 8.73026L8.61248 10.4921C8.57052 10.5784 8.56185 10.6772 8.58813 10.7695C8.61441 10.8618 8.67379 10.9411 8.75483 10.9921ZM12.4086 14.8572C12.4086 14.752 12.367 14.651 12.2928 14.5766C12.2186 14.5022 12.1181 14.4604 12.0132 14.4604H4.89543C4.79056 14.4604 4.68998 14.5022 4.61582 14.5766C4.54166 14.651 4.5 14.752 4.5 14.8572V16.0477H12.4086V14.8572ZM17.1538 18.7222C18.2968 17.937 19.1938 16.842 19.7404 15.5647C20.2869 14.2875 20.4605 12.8807 20.2409 11.5082C20.0212 10.1358 19.4174 8.85426 18.4998 7.81301C17.5821 6.77176 16.3885 6.01367 15.058 5.6271L15.1292 5.50806L11.7047 3.52394L9.33216 7.6509L12.7566 9.63501L13.8243 7.78582C15.0412 7.99504 16.136 8.65371 16.8933 9.63224C17.6507 10.6108 18.0157 11.8383 17.9165 13.0733C17.8173 14.3083 17.2612 15.4613 16.3575 16.3055C15.4538 17.1497 14.268 17.624 13.0334 17.635C12.0845 17.636 11.1558 17.3602 10.3603 16.8413H6.9833C7.55392 17.6659 8.28583 18.3653 9.13445 18.8968L7.3471 21.373C7.31021 21.4355 7.29075 21.5068 7.29075 21.5794C7.29075 21.652 7.31021 21.7233 7.3471 21.7857C7.37865 21.8444 7.42391 21.8946 7.479 21.9319C7.5341 21.9692 7.59738 21.9926 7.66345 22H18.7355C18.8084 21.9992 18.8798 21.9789 18.9424 21.9412C19.0049 21.9036 19.0563 21.8499 19.0914 21.7857C19.1225 21.7197 19.1352 21.6466 19.1283 21.5739C19.1213 21.5013 19.0949 21.4318 19.0518 21.373L17.1538 18.7222Z" fill="black"/>
</g>
</svg>
