<svg width="24" height="24" viewBox="0 0 24 24" fill="none" xmlns="http://www.w3.org/2000/svg">
<path fill-rule="evenodd" clip-rule="evenodd" d="M13.5249 11.3866C13.0855 11.6685 12.6067 11.8095 12.0885 11.8095C11.5653 11.8095 11.0839 11.6685 10.6445 11.3866C10.2051 11.1046 9.85326 10.7224 9.58909 10.2397C9.32493 9.75713 9.19284 9.21864 9.19284 8.62427C9.18776 8.04005 9.31858 7.51172 9.58528 7.03927C9.85199 6.56682 10.2063 6.19216 10.6483 5.9153C11.0903 5.63843 11.5703 5.5 12.0885 5.5C12.6067 5.5 13.0855 5.63716 13.5249 5.91149C13.9643 6.18581 14.3174 6.55793 14.5841 7.02784C14.8508 7.49775 14.9842 8.02481 14.9842 8.60903C14.9842 9.21356 14.8508 9.75713 14.5841 10.2397C14.3174 10.7224 13.9643 11.1046 13.5249 11.3866ZM17.8112 18.2485C17.5776 18.4161 17.1686 18.5 16.5844 18.5H7.56975C6.99062 18.5 6.58421 18.4161 6.35053 18.2485C6.11684 18.0809 6 17.8345 6 17.5093C6 17.042 6.14097 16.553 6.42292 16.0425C6.70486 15.5319 7.11 15.0531 7.63833 14.6061C8.16667 14.159 8.80549 13.7958 9.55481 13.5164C10.3041 13.237 11.1461 13.0973 12.0809 13.0973C13.0156 13.0973 13.8564 13.237 14.6032 13.5164C15.3499 13.7958 15.9888 14.159 16.5196 14.6061C17.0505 15.0531 17.4569 15.5319 17.7389 16.0425C18.0208 16.553 18.1618 17.042 18.1618 17.5093C18.1618 17.8345 18.0449 18.0809 17.8112 18.2485Z" fill="#333333"/>
</svg>
