<svg width="16" height="16" viewBox="0 0 16 16" fill="none" xmlns="http://www.w3.org/2000/svg">
<path d="M7.99613 16C12.3809 16 16 12.3791 16 8C16 3.62089 12.3731 0 7.9884 0C3.61141 0 0 3.62089 0 8C0 12.3791 3.61914 16 7.99613 16ZM4.25326 8.00774C4.25326 7.55126 4.57806 7.23404 5.02658 7.23404H7.23055V5.02901C7.23055 4.58027 7.53987 4.26306 7.98067 4.26306C8.43693 4.26306 8.75399 4.58027 8.75399 5.02901V7.23404H10.9657C11.4065 7.23404 11.7313 7.55126 11.7313 8.00774C11.7313 8.44874 11.4065 8.76596 10.9657 8.76596H8.75399V10.971C8.75399 11.412 8.43693 11.7369 7.98067 11.7369C7.53987 11.7369 7.23055 11.412 7.23055 10.971V8.76596H5.02658C4.57806 8.76596 4.25326 8.44874 4.25326 8.00774Z" fill="white"/>
</svg>
