<svg width="24" height="24" viewBox="0 0 24 24" fill="none" xmlns="http://www.w3.org/2000/svg">
<path d="M8.20783 12.1157V7.1487C8.20783 6.45478 8.39043 5.92319 8.75565 5.55391C9.12493 5.18464 9.65449 5 10.3443 5H13.0957V9.83304C13.0957 10.5675 13.4629 10.9348 14.1974 10.9348H19V16.2487C19 16.9426 18.8174 17.4742 18.4522 17.8435C18.087 18.2128 17.5574 18.3974 16.8635 18.3974H11.6957C11.8986 18.0809 12.0548 17.74 12.1643 17.3748C12.2739 17.0096 12.3287 16.6301 12.3287 16.2365C12.3287 15.6725 12.2212 15.1429 12.0061 14.6478C11.791 14.1528 11.4928 13.7165 11.1113 13.3391C10.7339 12.9577 10.2957 12.6594 9.79652 12.4443C9.30145 12.2293 8.77188 12.1197 8.20783 12.1157ZM14.4652 9.9487C14.2136 9.9487 14.0878 9.8229 14.0878 9.5713V5.05478C14.2461 5.06696 14.4023 5.12986 14.5565 5.24348C14.7148 5.3571 14.8791 5.49913 15.0496 5.66957L18.3183 8.9687C18.4968 9.1513 18.6429 9.32174 18.7565 9.48C18.8701 9.6342 18.933 9.79043 18.9452 9.9487H14.4652ZM8.20783 19.4443C7.76957 19.4443 7.35565 19.3612 6.96609 19.1948C6.58058 19.0284 6.24174 18.7971 5.94957 18.5009C5.65333 18.2046 5.42203 17.8617 5.25565 17.4722C5.08522 17.0867 5 16.6748 5 16.2365C5 15.7983 5.08522 15.3864 5.25565 15.0009C5.42203 14.6154 5.65333 14.2745 5.94957 13.9783C6.24174 13.682 6.58058 13.4507 6.96609 13.2843C7.35565 13.118 7.76957 13.0348 8.20783 13.0348C8.64609 13.0348 9.05797 13.118 9.44348 13.2843C9.83304 13.4507 10.1739 13.682 10.4661 13.9783C10.7623 14.2704 10.9936 14.6113 11.16 15.0009C11.3264 15.3864 11.4096 15.7983 11.4096 16.2365C11.4096 16.6748 11.3264 17.0867 11.16 17.4722C10.9936 17.8617 10.7623 18.2026 10.4661 18.4948C10.1699 18.791 9.82696 19.0223 9.43739 19.1887C9.05188 19.3591 8.64203 19.4443 8.20783 19.4443ZM8.20783 18.3122C8.35391 18.3122 8.47159 18.2675 8.56087 18.1783C8.65015 18.089 8.69478 17.9713 8.69478 17.8252V16.7296H9.79043C9.93246 16.7296 10.0481 16.6849 10.1374 16.5957C10.2307 16.5064 10.2774 16.3887 10.2774 16.2426C10.2774 16.0925 10.2307 15.9748 10.1374 15.8896C10.0481 15.8003 9.93246 15.7557 9.79043 15.7557H8.69478V14.6661C8.69478 14.5159 8.65015 14.3962 8.56087 14.307C8.47159 14.2177 8.35391 14.1751 8.20783 14.1791C8.06174 14.1791 7.94406 14.2238 7.85478 14.313C7.76551 14.4023 7.72087 14.52 7.72087 14.6661V15.7557H6.62522C6.47913 15.7557 6.36145 15.8003 6.27217 15.8896C6.1829 15.9748 6.13826 16.0925 6.13826 16.2426C6.14232 16.3887 6.18899 16.5064 6.27826 16.5957C6.36754 16.6849 6.48319 16.7296 6.62522 16.7296H7.72087V17.8252C7.72087 17.9713 7.76551 18.089 7.85478 18.1783C7.94406 18.2675 8.06174 18.3122 8.20783 18.3122Z" fill="#333333"/>
</svg>
