<svg width="17" height="19" viewBox="0 0 17 19" fill="none" xmlns="http://www.w3.org/2000/svg">
<g id="Group 996">
<path id="Union" fill-rule="evenodd" clip-rule="evenodd" d="M12.3381 18.6134H4.67004C3.56073 18.6134 2.91296 18.0223 2.87247 16.9211L2.35425 5.22065H1.22874C0.823887 5.22065 0.5 4.90486 0.5 4.4919C0.5 4.09514 0.823887 3.77935 1.22874 3.77935H4.72672V2.56478C4.72672 1.26923 5.56073 0.5 6.95344 0.5H10.0304C11.4231 0.5 12.2571 1.26923 12.2571 2.56478V3.77935H15.7713C16.1761 3.77935 16.5 4.08704 16.5 4.4919C16.5 4.89676 16.1842 5.22065 15.7713 5.22065H14.6538L14.1437 16.9211C14.0951 18.0223 13.4474 18.6134 12.3381 18.6134ZM7.0668 2.03846C6.66194 2.03846 6.41093 2.27328 6.41093 2.63765V3.77935H10.581V2.63765C10.581 2.27328 10.33 2.03846 9.9251 2.03846H7.0668Z" fill="#191414"/>
<path id="&#244;&#128;&#129;&#143;" d="M8.49533 14.1734C10.2492 14.1734 11.6969 12.7251 11.6969 10.9734C11.6969 9.22179 10.2461 7.77344 8.49223 7.77344C6.74144 7.77344 5.29688 9.22179 5.29688 10.9734C5.29688 12.7251 6.74453 14.1734 8.49533 14.1734ZM7.27967 11.2829C7.08479 11.2829 6.94559 11.1684 6.94559 10.9796C6.94559 10.7908 7.07861 10.6701 7.27967 10.6701H9.71099C9.91205 10.6701 10.042 10.7908 10.042 10.9796C10.042 11.1684 9.90586 11.2829 9.71099 11.2829H7.27967Z" fill="white"/>
</g>
</svg>
