<svg width="24" height="24" viewBox="0 0 24 24" fill="none" xmlns="http://www.w3.org/2000/svg">
<path d="M8.9132 6.9056C8.77804 6.9056 8.6734 6.94484 8.59929 7.02332C8.52517 7.10179 8.48811 7.21079 8.48811 7.35031V8.44246C8.48811 8.57762 8.52517 8.68661 8.59929 8.76945C8.6734 8.84793 8.77804 8.88717 8.9132 8.88717H12.9221C13.0529 8.88717 13.1554 8.84793 13.2295 8.76945C13.3036 8.68661 13.3407 8.57762 13.3407 8.44246V7.35031C13.3407 7.21079 13.3036 7.10179 13.2295 7.02332C13.1554 6.94484 13.0529 6.9056 12.9221 6.9056H8.9132ZM8.9132 9.46921C8.77804 9.46921 8.6734 9.51063 8.59929 9.59347C8.52517 9.67195 8.48811 9.77877 8.48811 9.91392V11.0061C8.48811 11.1412 8.52517 11.2502 8.59929 11.3331C8.6734 11.4115 8.77804 11.4508 8.9132 11.4508H15.0999C15.2307 11.4508 15.3331 11.4115 15.4073 11.3331C15.4814 11.2502 15.5184 11.1412 15.5184 11.0061V9.91392C15.5184 9.77877 15.4814 9.67195 15.4073 9.59347C15.3331 9.51063 15.2307 9.46921 15.0999 9.46921H8.9132ZM8.9132 12.0459C8.77804 12.0459 8.6734 12.0851 8.59929 12.1636C8.52517 12.2377 8.48811 12.3424 8.48811 12.4775V13.5762C8.48811 13.7157 8.52517 13.8247 8.59929 13.9032C8.6734 13.9773 8.77804 14.0144 8.9132 14.0144H14.0208C14.1516 14.0144 14.2541 13.9773 14.3282 13.9032C14.4023 13.8247 14.4394 13.7157 14.4394 13.5762V12.4775C14.4394 12.3424 14.4023 12.2377 14.3282 12.1636C14.2541 12.0851 14.1516 12.0459 14.0208 12.0459H8.9132ZM8.9132 14.6095C8.77804 14.6095 8.6734 14.6488 8.59929 14.7272C8.52517 14.8057 8.48811 14.9147 8.48811 15.0542V16.1464C8.48811 16.2815 8.52517 16.3884 8.59929 16.4668C8.6734 16.5497 8.77804 16.5911 8.9132 16.5911H11.8692C11.9956 16.5911 12.0959 16.5497 12.17 16.4668C12.2485 16.3884 12.2878 16.2815 12.2878 16.1464V15.0542C12.2878 14.9147 12.2485 14.8057 12.17 14.7272C12.0959 14.6488 11.9956 14.6095 11.8692 14.6095H8.9132ZM6.5 16.7088V6.78788C6.5 6.10774 6.66786 5.59545 7.00357 5.25102C7.34364 4.90659 7.85157 4.73438 8.52735 4.73438H15.4727C16.1484 4.73438 16.6542 4.90659 16.9899 5.25102C17.33 5.59545 17.5 6.10774 17.5 6.78788V16.7088C17.5 17.3933 17.33 17.9056 16.9899 18.2457C16.6542 18.5857 16.1484 18.7558 15.4727 18.7558H8.52735C7.85157 18.7558 7.34364 18.5857 7.00357 18.2457C6.66786 17.9056 6.5 17.3933 6.5 16.7088Z" fill="#333333"/>
</svg>
