<svg width="24" height="24" viewBox="0 0 24 24" fill="none" xmlns="http://www.w3.org/2000/svg">
<path d="M12.0908 17.6526C12.7243 17.6526 13.3327 17.5979 13.916 17.4886C14.4993 17.3792 15.0485 17.2288 15.5635 17.0374L13.7725 15.2464C13.5218 15.3785 13.2529 15.4788 12.9658 15.5472C12.6833 15.6155 12.3916 15.6497 12.0908 15.6497C11.5576 15.6497 11.0586 15.5517 10.5938 15.3558C10.1335 15.1552 9.72786 14.8795 9.37695 14.5286C9.0306 14.1731 8.75716 13.7675 8.55664 13.3118C8.36068 12.8515 8.2627 12.3616 8.2627 11.8421C8.2627 11.5367 8.29688 11.2405 8.36523 10.9534C8.43359 10.6617 8.53158 10.3883 8.65918 10.1331L6.32129 7.78153C5.78353 8.11877 5.29818 8.48108 4.86523 8.86845C4.43685 9.25126 4.06999 9.63179 3.76465 10.0101C3.45931 10.3883 3.22461 10.7369 3.06055 11.0559C2.90104 11.375 2.82129 11.637 2.82129 11.8421C2.82129 12.0745 2.92383 12.3776 3.12891 12.7513C3.33398 13.1204 3.63021 13.5237 4.01758 13.9612C4.40951 14.3987 4.87891 14.8339 5.42578 15.2669C5.97721 15.6998 6.59701 16.0963 7.28516 16.4563C7.97331 16.8164 8.7207 17.1058 9.52734 17.3245C10.334 17.5433 11.1885 17.6526 12.0908 17.6526ZM18.0518 15.7864C18.7171 15.3489 19.2959 14.8772 19.7881 14.3714C20.2848 13.861 20.6699 13.3802 20.9434 12.929C21.2168 12.4778 21.3535 12.1155 21.3535 11.8421C21.3535 11.6097 21.251 11.3089 21.0459 10.9397C20.8454 10.566 20.5514 10.1604 20.1641 9.72294C19.7812 9.28544 19.3164 8.85022 18.7695 8.41728C18.2227 7.98433 17.6051 7.58785 16.917 7.22782C16.2288 6.8678 15.4792 6.57841 14.668 6.35966C13.8613 6.14091 13.0023 6.03153 12.0908 6.03153C11.5075 6.03153 10.9447 6.07939 10.4023 6.17509C9.86003 6.26624 9.34049 6.39384 8.84375 6.5579L10.6211 8.33525C10.8444 8.23954 11.0791 8.16663 11.3252 8.1165C11.5713 8.06181 11.8265 8.03446 12.0908 8.03446C12.6195 8.03446 13.1139 8.13245 13.5742 8.32841C14.0391 8.51982 14.4447 8.79098 14.791 9.14189C15.1419 9.48824 15.4154 9.89156 15.6113 10.3518C15.8118 10.8121 15.9121 11.3089 15.9121 11.8421C15.9121 12.1018 15.8848 12.3548 15.8301 12.6009C15.7754 12.847 15.6956 13.0794 15.5908 13.2981L18.0518 15.7864ZM9.91016 11.6849C9.91016 12.0859 10.0081 12.4505 10.2041 12.7786C10.4046 13.1067 10.6689 13.3688 10.9971 13.5647C11.3298 13.7607 11.6966 13.8587 12.0977 13.8587C12.1432 13.8587 12.1888 13.8587 12.2344 13.8587C12.2799 13.8541 12.3278 13.8496 12.3779 13.845L9.92383 11.3909C9.91927 11.441 9.91471 11.4912 9.91016 11.5413C9.91016 11.5914 9.91016 11.6393 9.91016 11.6849ZM14.2646 11.6985C14.2646 11.302 14.1667 10.9397 13.9707 10.6116C13.7793 10.2789 13.5195 10.0169 13.1914 9.82548C12.8633 9.62952 12.4964 9.53153 12.0908 9.53153C12.0452 9.53153 11.9997 9.53381 11.9541 9.53837C11.9131 9.53837 11.8721 9.54065 11.8311 9.54521L14.251 11.9651C14.2555 11.9241 14.2578 11.8808 14.2578 11.8352C14.2624 11.7897 14.2646 11.7441 14.2646 11.6985ZM17.4092 17.762C17.514 17.8668 17.637 17.9215 17.7783 17.9261C17.9242 17.9306 18.0495 17.8759 18.1543 17.762C18.2682 17.6481 18.3229 17.5205 18.3184 17.3792C18.3138 17.2425 18.2591 17.1217 18.1543 17.0169L6.72461 5.59403C6.62435 5.49377 6.49902 5.44364 6.34863 5.44364C6.2028 5.43909 6.07747 5.48922 5.97266 5.59403C5.8724 5.6943 5.82227 5.81962 5.82227 5.97001C5.82227 6.11584 5.8724 6.23889 5.97266 6.33915L17.4092 17.762Z" fill="black"/>
</svg>
