<svg width="24" height="24" viewBox="0 0 24 24" fill="none" xmlns="http://www.w3.org/2000/svg">
<path d="M6.82033 18.5H17.1863C18.2652 18.5 19 17.6555 19 16.6714C19 16.3655 18.9206 16.0596 18.7617 15.7737L13.5721 6.44425C13.2213 5.79923 12.6189 5.5 12.0033 5.5C11.3877 5.5 10.7787 5.81253 10.4279 6.44425L5.2383 15.7737C5.07943 16.0596 5 16.3655 5 16.6714C5 17.6555 5.73475 18.5 6.82033 18.5ZM12.0099 13.7123C11.5333 13.7123 11.2553 13.4463 11.2288 12.9675L11.1229 10.1747C11.0965 9.66266 11.4605 9.31023 12.0033 9.31023C12.5461 9.31023 12.9168 9.66931 12.8903 10.1813L12.7778 12.9542C12.7513 13.4463 12.4799 13.7123 12.0099 13.7123ZM12.0099 16.1261C11.4738 16.1261 11.0567 15.7936 11.0567 15.2749C11.0567 14.7629 11.4671 14.4238 12.0099 14.4238C12.5527 14.4238 12.9565 14.7629 12.9565 15.2749C12.9565 15.7936 12.5527 16.1261 12.0099 16.1261Z" fill="#333333"/>
</svg>
