<svg width="37" height="36" viewBox="0 0 37 36" fill="none" xmlns="http://www.w3.org/2000/svg">
<rect x="0.669922" width="36" height="36" rx="10" fill="#EEEEEE"/>
<path fill-rule="evenodd" clip-rule="evenodd" d="M21.0598 25.3735C20.2712 25.686 19.3936 25.8423 18.4268 25.8423C17.2695 25.8423 16.26 25.6348 15.3982 25.2197C14.5364 24.8047 13.8662 24.2236 13.3877 23.4766C12.9092 22.7295 12.6699 21.8555 12.6699 20.8545C12.6699 20.3271 12.7126 19.8584 12.7981 19.4482C12.8835 19.0381 12.9885 18.6682 13.113 18.3386C13.2375 18.009 13.3633 17.6978 13.4902 17.4048C13.6172 17.1118 13.7222 16.8213 13.8052 16.5332C13.8882 16.2451 13.9297 15.9375 13.9297 15.6104C13.9297 15.4492 13.9211 15.2722 13.9041 15.0793C13.887 14.8865 13.8784 14.7437 13.8784 14.6509C13.8784 14.4897 13.9248 14.3579 14.0176 14.2554C14.1104 14.1528 14.2324 14.1016 14.3838 14.1016C14.6426 14.1016 14.905 14.1797 15.1711 14.3359C15.4373 14.4922 15.6765 14.7083 15.8889 14.9841C15.9951 15.1221 16.0888 15.2707 16.17 15.43L16.2156 15.5333L16.2332 15.4675C16.2649 15.3088 16.2808 15.1465 16.2808 14.9805C16.2759 14.4971 16.1868 14.0381 16.0134 13.6035C15.8401 13.1689 15.6204 12.7563 15.3542 12.3657C15.0881 11.9751 14.811 11.6064 14.5229 11.2598C14.4448 11.1719 14.3862 11.0815 14.3472 10.9888C14.3081 10.896 14.2886 10.8032 14.2886 10.7104C14.2886 10.4761 14.3899 10.2991 14.5925 10.1794C14.7952 10.0598 15.0698 10 15.4165 10C16.061 10 16.741 10.0769 17.4563 10.2307C18.1716 10.3845 18.8821 10.6238 19.5876 10.9485C20.2932 11.2732 20.9634 11.6858 21.5981 12.1863C22.2329 12.6868 22.7957 13.28 23.2864 13.9661C23.7771 14.6521 24.1641 15.437 24.4473 16.3208C24.7305 17.2046 24.8721 18.1934 24.8721 19.2871C24.8721 20.2686 24.7195 21.1621 24.4143 21.9678C24.1091 22.7734 23.6709 23.4644 23.0996 24.0405C22.5283 24.6167 21.8484 25.061 21.0598 25.3735ZM16.9436 23.2166C17.3611 23.595 17.9116 23.7842 18.5952 23.7842C19.1763 23.7842 19.6584 23.6572 20.0417 23.4033C20.425 23.1494 20.7119 22.8149 20.9023 22.3999C21.0928 21.9849 21.188 21.5356 21.188 21.0522C21.188 20.5737 21.0964 20.0928 20.9133 19.6094C20.7302 19.126 20.458 18.6792 20.0967 18.269C19.7354 17.8589 19.2861 17.5269 18.749 17.2729C18.7148 17.2583 18.688 17.2595 18.6685 17.2766C18.6489 17.2937 18.6416 17.3193 18.6465 17.3535C18.71 17.9541 18.7002 18.512 18.6172 19.0271C18.5342 19.5422 18.395 19.9316 18.1997 20.1953C18.1069 19.9854 18.0032 19.7888 17.8884 19.6057C17.7737 19.4226 17.6309 19.2554 17.46 19.104C17.4355 19.0845 17.4124 19.0784 17.3904 19.0857C17.3684 19.093 17.355 19.1138 17.3501 19.1479C17.3208 19.3579 17.2524 19.5496 17.145 19.7229C17.0376 19.8962 16.9204 20.0769 16.7935 20.2649C16.6665 20.4529 16.5554 20.6628 16.4602 20.8948C16.365 21.1267 16.3174 21.4038 16.3174 21.7261C16.3174 22.3413 16.5261 22.8381 16.9436 23.2166Z" fill="#191414"/>
</svg>
