<svg width="24" height="24" viewBox="0 0 24 24" fill="none" xmlns="http://www.w3.org/2000/svg">
<path d="M6.81976 6.04525H17.1802V5.9242C17.1802 4.87035 16.3614 4.40039 15.2078 4.40039H8.79217C7.68847 4.40039 6.81976 4.87035 6.81976 5.9242V6.04525ZM7.9733 19.6883H16.0267C16.931 19.6883 17.3867 19.2825 17.3867 18.3354V16.9683H17.8781C19.2666 16.9683 20 16.2704 20 14.8819V9.08575C20 7.69723 19.2666 6.99229 17.8781 6.99229H6.11482C4.80463 6.99229 4 7.69723 4 9.08575V14.8819C4 16.2704 4.73342 16.9683 6.11482 16.9683H6.61326V18.3354C6.61326 19.2825 7.06898 19.6883 7.9733 19.6883ZM15.4642 9.34921C15.4642 8.85789 15.8843 8.43065 16.3899 8.43065C16.8741 8.43065 17.3013 8.85789 17.3013 9.34921C17.3013 9.85477 16.8741 10.2535 16.3899 10.2606C15.8843 10.2606 15.4642 9.86189 15.4642 9.34921ZM8.32933 18.6202C7.94482 18.6202 7.75968 18.4351 7.75968 18.0506V12.76C7.75968 12.3826 7.95194 12.1975 8.32933 12.1975H15.6778C16.0552 12.1975 16.2403 12.3826 16.2403 12.76V18.0506C16.2403 18.4351 16.0552 18.6202 15.6778 18.6202H8.32933ZM9.53271 14.6256H14.4815C14.7308 14.6256 14.923 14.4333 14.923 14.177C14.923 13.9349 14.7308 13.7497 14.4815 13.7497H9.53271C9.26925 13.7497 9.08411 13.9349 9.08411 14.177C9.08411 14.4333 9.26925 14.6256 9.53271 14.6256ZM9.53271 17.1107H14.4815C14.7308 17.1107 14.923 16.9184 14.923 16.6763C14.923 16.4271 14.7308 16.2348 14.4815 16.2348H9.53271C9.26925 16.2348 9.08411 16.4271 9.08411 16.6763C9.08411 16.9184 9.26925 17.1107 9.53271 17.1107Z" fill="#333333"/>
</svg>
