<svg width="25" height="24" viewBox="0 0 25 24" fill="none" xmlns="http://www.w3.org/2000/svg">
<g id="Frame 261005283" clip-path="url(#clip0_805_304079)">
<rect width="24" height="24" transform="translate(0.5)" fill="white"/>
<path id="Union" fill-rule="evenodd" clip-rule="evenodd" d="M20.952 2.60416C20.9493 2.60662 20.9462 2.60895 20.9435 2.61142C20.78 0.914595 16.6339 0 12.7257 0C8.81851 0 4.67361 0.914085 4.50792 2.61004L4.50459 2.60719L4.50104 2.60416V2.70135C4.50101 2.70361 4.50077 2.70582 4.50052 2.70804C4.50026 2.71041 4.5 2.71278 4.5 2.7152C4.5 2.71762 4.50026 2.71999 4.50052 2.72236L4.50052 2.72236C4.50077 2.72457 4.50101 2.72679 4.50104 2.72905V9.15636C5.47923 9.87999 8.47923 10.6545 12.7265 10.6545C17.0283 10.6545 19.9847 9.89453 20.952 9.16726V2.60416ZM12.7257 0.727273C17.3714 0.727273 20.2241 1.88512 20.2241 2.7152C20.2241 3.54528 17.3714 4.70312 12.7257 4.70312C8.0799 4.70312 5.22727 3.54528 5.22727 2.7152C5.22727 1.88512 8.0799 0.727273 12.7257 0.727273ZM10.6232 2.79607C10.6232 3.37424 9.98679 3.81061 9.14679 3.81061C8.30316 3.81061 7.67043 3.37424 7.67043 2.79607C7.67043 2.22152 8.30316 1.78515 9.14679 1.78515C9.98679 1.78515 10.6232 2.22152 10.6232 2.79607ZM12.7246 11.3826C16.0018 11.3826 19.3057 10.9128 20.9509 10.004V15.4732C19.9842 16.2033 17.028 16.9637 12.7246 16.9637C8.47809 16.9637 5.47925 16.1881 4.5 15.4625V10.0049C6.1458 10.9131 9.44851 11.3826 12.7246 11.3826ZM4.5 21.2867V16.3172C6.1458 17.2254 9.44851 17.6949 12.7246 17.6949C16.0018 17.6949 19.3057 17.2251 20.9509 16.3163V21.2867C20.9509 23.0504 16.7109 24.0031 12.7255 24.0031C8.73637 24.0031 4.5 23.0504 4.5 21.2867Z" fill="#9779FC"/>
</g>
<defs>
<clipPath id="clip0_805_304079">
<rect width="24" height="24" fill="white" transform="translate(0.5)"/>
</clipPath>
</defs>
</svg>
