<svg width="24" height="24" viewBox="0 0 24 24" fill="none" xmlns="http://www.w3.org/2000/svg">
<path d="M5 13.3804C5 16.3976 6.65779 17.5829 11.4156 20.1856C11.6311 20.3017 11.8549 20.3597 11.9959 20.3597C12.1451 20.3597 12.3689 20.3017 12.5844 20.1856C17.3422 17.5912 19 16.3976 19 13.3804V7.10568C19 6.12759 18.6187 5.77946 17.7981 5.43132C16.878 5.04174 13.7697 3.9476 12.8579 3.6492C12.5927 3.55802 12.2777 3.5 11.9959 3.5C11.7223 3.5 11.4073 3.5746 11.1338 3.6492C10.2303 3.89787 7.12197 5.05003 6.20189 5.43132C5.38129 5.77117 5 6.12759 5 7.10568V13.3804ZM6.55003 13.0654V11.7226H11.9959V5.05832C12.1202 5.05832 12.2445 5.08319 12.4269 5.1495C13.5459 5.58881 15.9082 6.42599 17.1516 6.87359C17.3837 6.95648 17.4417 7.08082 17.4417 7.37093V11.7226H11.9959V18.619C11.8798 18.619 11.7638 18.5776 11.5234 18.4284C7.72706 16.124 6.55003 15.4941 6.55003 13.0654Z" fill="#333333"/>
</svg>
