<svg width="20" height="20" viewBox="0 0 20 20" fill="none" xmlns="http://www.w3.org/2000/svg">
<path d="M10.1237 3.83984C10.3255 3.83984 10.5208 3.92448 10.6641 4.07422L14.9414 8.35156C15.1042 8.52083 15.1758 8.69661 15.1758 8.87891C15.1758 9.29557 14.8828 9.59505 14.4857 9.59505C14.2773 9.59505 14.1016 9.51042 13.9714 9.38021L12.487 7.91536L10.7617 6.02734L10.8529 7.53776L10.8529 15.4284C10.8529 15.8646 10.5534 16.1641 10.1237 16.1641C9.70052 16.1641 9.40104 15.8646 9.40104 15.4284L9.40104 7.53776L9.49219 6.02734L7.76693 7.91536L6.28255 9.38021C6.15234 9.51042 5.97656 9.59505 5.76823 9.59505C5.37109 9.59505 5.07813 9.29557 5.07813 8.8789C5.07813 8.69661 5.14974 8.52083 5.29948 8.36458L9.58984 4.07422C9.73307 3.92448 9.92839 3.83984 10.1237 3.83984Z"/>
</svg>
