<svg width="24" height="25" viewBox="0 0 24 25" fill="none" xmlns="http://www.w3.org/2000/svg">
<path d="M16.6406 11.1953C16.6406 12.4375 16.2656 13.6016 15.625 14.5703L19.0547 17.9922C19.2734 18.2188 19.3828 18.5078 19.3828 18.8203C19.3828 19.4688 18.875 19.9453 18.2344 19.9453C17.9375 19.9453 17.6484 19.8438 17.4297 19.625L14.0156 16.2266C13.0156 16.9297 11.8047 17.3438 10.4922 17.3438C7.10938 17.3438 4.34375 14.5781 4.34375 11.1953C4.34375 7.82031 7.10938 5.04688 10.4922 5.04688C13.875 5.04687 16.6406 7.8125 16.6406 11.1953ZM15 11.1953C15 8.71875 12.9688 6.6875 10.4922 6.6875C8.01562 6.6875 5.98438 8.71875 5.98438 11.1953C5.98438 13.6719 8.01562 15.7031 10.4922 15.7031C12.9688 15.7031 15 13.6719 15 11.1953Z" fill="#333333"/>
</svg>
