<svg width="12" height="13" viewBox="0 0 12 13" fill="none" xmlns="http://www.w3.org/2000/svg">
<path d="M3.51112 11.5H8.3999C9.07735 11.5 9.41102 11.1663 9.41102 10.4333V6.65672C9.41102 5.99444 9.13296 5.65066 8.57685 5.59505V4.34631C8.57685 2.42518 7.29778 1.5 5.95298 1.5C4.61325 1.5 3.33418 2.42518 3.33418 4.34631V5.61527C2.81345 5.69616 2.5 6.02983 2.5 6.65672V10.4333C2.5 11.1663 2.83367 11.5 3.51112 11.5ZM4.29474 4.25025C4.29474 3.06218 5.04803 2.42012 5.95298 2.42012C6.85794 2.42012 7.61628 3.06218 7.61628 4.25025V5.58999L4.29474 5.59505V4.25025Z" fill="#191414"/>
</svg>
