<svg width="24" height="24" viewBox="0 0 24 24" fill="none" xmlns="http://www.w3.org/2000/svg">
<path fill-rule="evenodd" clip-rule="evenodd" d="M18.6718 17.5508C19.085 17.5508 19.4097 17.4491 19.6458 17.2455C19.8819 17.0419 20 16.7694 20 16.4281C20 15.991 19.8318 15.5763 19.4953 15.1841C19.1588 14.7919 18.8046 14.4101 18.4328 14.0389C18.2439 13.8473 18.0963 13.5943 17.99 13.2799C17.8838 12.9655 17.8041 12.6257 17.751 12.2604C17.6978 11.8952 17.6565 11.5359 17.627 11.1826C17.5975 10.1227 17.4721 9.17663 17.2507 8.34429C17.0293 7.51196 16.6914 6.80987 16.2369 6.23801C15.7823 5.66616 15.1891 5.2485 14.4571 4.98502C14.2918 4.42814 13.9967 3.95808 13.5717 3.57485C13.1467 3.19162 12.6242 3 12.0044 3C11.3846 3 10.8607 3.19162 10.4328 3.57485C10.0048 3.95808 9.70817 4.42814 9.54289 4.98502C8.81092 5.2485 8.21767 5.66616 7.76314 6.23801C7.30861 6.80987 6.97067 7.51196 6.74931 8.34429C6.52795 9.17663 6.40251 10.1227 6.37299 11.1826C6.33758 11.5359 6.29478 11.8952 6.2446 12.2604C6.19443 12.6257 6.11621 12.9655 6.00996 13.2799C5.90371 13.5943 5.75613 13.8473 5.56724 14.0389C5.19535 14.4101 4.84117 14.7919 4.5047 15.1841C4.16823 15.5763 4 15.991 4 16.4281C4 16.7694 4.11806 17.0419 4.35418 17.2455C4.5903 17.4491 4.91496 17.5508 5.32817 17.5508H18.6718ZM12.0047 21C12.4828 21 12.9137 20.8952 13.2974 20.6856C13.6811 20.476 13.9895 20.1976 14.2227 19.8503C14.4559 19.5029 14.5902 19.1287 14.6256 18.7275H9.37488C9.4103 19.1287 9.54459 19.5029 9.77776 19.8503C10.0109 20.1976 10.3194 20.476 10.703 20.6856C11.0867 20.8952 11.5206 21 12.0047 21Z" fill="black"/>
<path d="M17.4825 8.46502C19.1099 8.46502 20.465 7.11889 20.465 5.48251C20.465 3.84613 19.1099 2.5 17.4825 2.5C15.839 2.5 14.5 3.84801 14.5 5.48251C14.5 7.11702 15.839 8.46502 17.4825 8.46502Z" fill="#FF8248" stroke="white"/>
</svg>
