<svg width="24" height="24" viewBox="0 0 24 24" fill="none" xmlns="http://www.w3.org/2000/svg">
<g id="Icon/Image">
<path id="&#244;&#128;&#143;&#133;" d="M3.19593 21.5H20.8041C22.9415 21.5 24 20.4267 24 18.3007V5.69935C24 3.57333 22.9415 2.5 20.8041 2.5H3.19593C1.0687 2.5 0 3.56301 0 5.69935V18.3007C0 20.437 1.0687 21.5 3.19593 21.5ZM16.9059 11.9742C16.4478 11.5614 15.9186 11.3446 15.369 11.3446C14.8092 11.3446 14.3104 11.5407 13.8422 11.9639L9.24173 16.1334L7.35878 14.3995C6.9313 14.0177 6.4631 13.8112 5.98473 13.8112C5.52672 13.8112 5.09924 14.0073 4.67176 14.3892L1.63868 17.1654V5.78191C1.63868 4.70858 2.19847 4.1616 3.21628 4.1616H20.7837C21.7913 4.1616 22.3613 4.70858 22.3613 5.78191V17.1757L16.9059 11.9742ZM7.5827 12.0877C8.89567 12.0877 9.97456 10.9938 9.97456 9.65209C9.97456 8.32075 8.89567 7.21646 7.5827 7.21646C6.25954 7.21646 5.18066 8.32075 5.18066 9.65209C5.18066 10.9938 6.25954 12.0877 7.5827 12.0877Z" fill="#111111"/>
</g>
</svg>
