<svg width="24" height="24" viewBox="0 0 28 29" fill="none" xmlns="http://www.w3.org/2000/svg">
<g id="MSDS icon">
<path id="Rectangle" fill-rule="evenodd" clip-rule="evenodd" d="M7.24219 7.67188L14.0694 14.4991L7.24219 21.3264L0.41495 14.4991L7.24219 7.67188Z" fill="#0B6CFF"/>
<path id="Rectangle (Stroke)" fill-rule="evenodd" clip-rule="evenodd" d="M7.24219 7.32031L14.423 14.5011L7.24219 21.6819L0.0613964 14.5011L7.24219 7.32031ZM7.24219 8.02742L0.768503 14.5011L7.24219 20.9748L13.7159 14.5011L7.24219 8.02742Z" fill="black"/>
<path id="Rectangle Copy 2" fill-rule="evenodd" clip-rule="evenodd" d="M14.0703 14.5L20.8976 21.3272L14.0703 28.1545L7.24307 21.3272L14.0703 14.5Z" fill="white"/>
<path id="Rectangle Copy 2 (Stroke)" fill-rule="evenodd" clip-rule="evenodd" d="M14.0703 14.1484L21.2511 21.3292L14.0703 28.51L6.88952 21.3292L14.0703 14.1484ZM14.0703 14.8555L7.59663 21.3292L14.0703 27.8029L20.544 21.3292L14.0703 14.8555Z" fill="black"/>
<path id="Rectangle Copy" fill-rule="evenodd" clip-rule="evenodd" d="M14 0.914063L20.8272 7.7413L14 14.5685L7.17276 7.7413L14 0.914063Z" fill="#FF5746"/>
<path id="Rectangle Copy (Stroke)" fill-rule="evenodd" clip-rule="evenodd" d="M14 0.5625L21.1808 7.74329L14 14.9241L6.81921 7.74329L14 0.5625ZM14 1.26961L7.52632 7.74329L14 14.217L20.4737 7.74329L14 1.26961Z" fill="black"/>
<path id="Rectangle Copy 3" fill-rule="evenodd" clip-rule="evenodd" d="M20.8281 7.74219L27.6554 14.5694L20.8281 21.3967L14.0009 14.5694L20.8281 7.74219Z" fill="#FEC741"/>
<path id="Rectangle Copy 3 (Stroke)" fill-rule="evenodd" clip-rule="evenodd" d="M20.8281 7.39062L28.0089 14.5714L20.8281 21.7522L13.6473 14.5714L20.8281 7.39062ZM20.8281 8.09773L14.3544 14.5714L20.8281 21.0451L27.3018 14.5714L20.8281 8.09773Z" fill="black"/>
</g>
</svg>
