<svg xmlns="http://www.w3.org/2000/svg" width="40" height="40" viewBox="0 0 40 40">
    <g fill="none" fill-rule="evenodd">
        <g>
            <g transform="translate(-859 -2022) translate(859 2022)">
                <rect width="40" height="40" fill="#CCC" rx="8"/>
                <path fill="#FFF" fill-rule="nonzero" d="M19.575 19.673c.852 0 1.64-.232 2.362-.696.723-.463 1.303-1.092 1.742-1.886.438-.793.658-1.687.658-2.681 0-.961-.22-1.828-.658-2.6-.439-.773-1.02-1.385-1.742-1.836-.723-.452-1.51-.677-2.362-.677-.852 0-1.642.228-2.369.683-.727.455-1.31 1.071-1.748 1.848-.438.777-.654 1.646-.645 2.607 0 .977.217 1.863.651 2.656.435.794 1.013 1.423 1.736 1.886.723.464 1.514.696 2.375.696zm7.393 11.002c.96 0 1.633-.138 2.018-.413.384-.276.576-.681.576-1.216 0-.768-.232-1.572-.695-2.412-.464-.84-1.132-1.627-2.005-2.362-.873-.735-1.924-1.333-3.152-1.792-1.228-.46-2.61-.69-4.148-.69-1.537 0-2.922.23-4.154.69-1.232.46-2.283 1.057-3.152 1.792-.868.735-1.535 1.522-1.998 2.362-.464.84-.696 1.644-.696 2.412 0 .535.192.94.577 1.216.384.275 1.052.413 2.005.413h14.824z"/>
            </g>
        </g>
    </g>
</svg>