<svg width="24" height="24" viewBox="0 0 24 24" fill="none" xmlns="http://www.w3.org/2000/svg">
<path d="M12.2842 19.127C13.2503 19.127 14.1595 18.9424 15.0117 18.5732C15.8639 18.2087 16.6159 17.7005 17.2676 17.0488C17.9193 16.3971 18.4297 15.6452 18.7988 14.793C19.168 13.9408 19.3525 13.0316 19.3525 12.0654C19.3525 11.0993 19.168 10.1901 18.7988 9.33789C18.4297 8.48568 17.9193 7.736 17.2676 7.08887C16.6159 6.43717 15.8639 5.92676 15.0117 5.55762C14.1595 5.18848 13.248 5.00391 12.2773 5.00391C11.3112 5.00391 10.402 5.18848 9.5498 5.55762C8.70215 5.92676 7.95247 6.43717 7.30078 7.08887C6.65365 7.736 6.14551 8.48568 5.77637 9.33789C5.40723 10.1901 5.22266 11.0993 5.22266 12.0654C5.22266 13.0316 5.40723 13.9408 5.77637 14.793C6.14551 15.6452 6.65365 16.3971 7.30078 17.0488C7.95247 17.7005 8.70443 18.2087 9.55664 18.5732C10.4089 18.9424 11.318 19.127 12.2842 19.127ZM9.23535 11.9355C9.23535 11.8398 9.26725 11.7601 9.33105 11.6963C9.39486 11.6325 9.47461 11.6006 9.57031 11.6006H9.86426L9.53613 9.48828C9.52702 9.44727 9.5179 9.40853 9.50879 9.37207C9.50423 9.33105 9.50195 9.29004 9.50195 9.24902C9.50195 9.10319 9.5498 8.98926 9.64551 8.90723C9.74121 8.82064 9.86426 8.77734 10.0146 8.77734C10.1468 8.77734 10.2607 8.81608 10.3564 8.89355C10.4521 8.96647 10.5068 9.07129 10.5205 9.20801L10.8076 11.6006H11.3203L11.7031 9.2832C11.7259 9.11914 11.7897 8.99382 11.8945 8.90723C11.9993 8.82064 12.1247 8.77734 12.2705 8.77734C12.4163 8.77734 12.5439 8.82064 12.6533 8.90723C12.7627 8.99382 12.8288 9.11686 12.8516 9.27637L13.2207 11.5938H13.7676L14.0547 9.20801C14.0684 9.06673 14.123 8.95964 14.2188 8.88672C14.3145 8.80924 14.4284 8.77051 14.5605 8.77051C14.7064 8.77051 14.8249 8.81152 14.916 8.89355C15.0072 8.97559 15.0527 9.08952 15.0527 9.23535C15.0527 9.27181 15.0505 9.30827 15.0459 9.34473C15.0413 9.38118 15.0368 9.41992 15.0322 9.46094L14.7041 11.5938H14.9844C15.0846 11.5938 15.1644 11.6257 15.2236 11.6895C15.2874 11.7533 15.3193 11.8353 15.3193 11.9355C15.3193 12.0267 15.2874 12.1064 15.2236 12.1748C15.1644 12.2432 15.0846 12.2773 14.9844 12.2773H14.5879L14.1709 14.998C14.1436 15.1621 14.0752 15.2897 13.9658 15.3809C13.861 15.4674 13.7357 15.5107 13.5898 15.5107C13.4395 15.5107 13.3096 15.4674 13.2002 15.3809C13.0908 15.2897 13.0247 15.1644 13.002 15.0049L12.5508 12.2773H12.0039L11.5664 15.0049C11.5436 15.1689 11.4775 15.2943 11.3682 15.3809C11.2633 15.4674 11.1357 15.5107 10.9854 15.5107C10.835 15.5107 10.7051 15.4674 10.5957 15.3809C10.4909 15.2897 10.4248 15.1621 10.3975 14.998L9.97363 12.2842H9.57031C9.47461 12.2842 9.39486 12.25 9.33105 12.1816C9.26725 12.1133 9.23535 12.0312 9.23535 11.9355ZM10.8828 12.2705L11.0332 13.7197L11.2383 12.2705H10.8828ZM12.1133 11.6006H12.4619L12.2842 10.3906L12.1133 11.6006ZM13.3232 12.2705L13.542 13.7539L13.6992 12.2705H13.3232Z" fill="#2E2E2E"/>
</svg>
