<svg width="24" height="24" viewBox="0 0 24 24" fill="none" xmlns="http://www.w3.org/2000/svg">
<path d="M5.7331 16.6564C5.29181 16.6564 5 16.2411 5 15.6357V8.89925C5 8.09679 5.07829 7.97008 5.7758 7.56885L11.7473 4.17598C11.9609 4.04927 12.1601 4 12.3452 4C12.7438 4 13.0498 4.28861 13.0214 4.75319L6.42349 8.5121C6.20285 8.63176 6.15302 8.73031 6.15302 8.98372V16.5156C6.01068 16.6142 5.86121 16.6564 5.7331 16.6564ZM8.57295 18.2824C8.14591 18.2824 7.83274 17.8671 7.83274 17.2618V10.5183C7.83274 9.72987 7.91815 9.58205 8.61566 9.18786L14.5872 5.78795C14.8007 5.67532 15 5.61901 15.1779 5.61901C15.5979 5.61901 15.8897 5.91465 15.8683 6.3722L9.27046 10.1381C9.03559 10.2648 8.99288 10.3352 8.99288 10.6098V18.1417C8.85053 18.2402 8.70818 18.2824 8.57295 18.2824ZM11.6263 20C11.0854 20 10.8007 19.5495 10.8007 18.733V12.3555C10.8007 11.5882 11.0356 11.194 11.7046 10.8069L17.2989 7.61813C17.6335 7.42807 17.9253 7.33656 18.1673 7.33656C18.7011 7.33656 19 7.76595 19 8.61065V14.9881C19 15.7765 18.7651 16.1637 18.1103 16.5367L12.5302 19.7044C12.1744 19.9015 11.8754 20 11.6263 20Z" fill="white"/>
<path d="M5.7331 16.6564C5.29181 16.6564 5 16.2411 5 15.6357V8.89925C5 8.09679 5.07829 7.97008 5.7758 7.56885L11.7473 4.17598C11.9609 4.04927 12.1601 4 12.3452 4C12.7438 4 13.0498 4.28861 13.0214 4.75319L6.42349 8.5121C6.20285 8.63176 6.15302 8.73031 6.15302 8.98372V16.5156C6.01068 16.6142 5.86121 16.6564 5.7331 16.6564ZM8.57295 18.2824C8.14591 18.2824 7.83274 17.8671 7.83274 17.2618V10.5183C7.83274 9.72987 7.91815 9.58205 8.61566 9.18786L14.5872 5.78795C14.8007 5.67532 15 5.61901 15.1779 5.61901C15.5979 5.61901 15.8897 5.91465 15.8683 6.3722L9.27046 10.1381C9.03559 10.2648 8.99288 10.3352 8.99288 10.6098V18.1417C8.85053 18.2402 8.70818 18.2824 8.57295 18.2824ZM11.6263 20C11.0854 20 10.8007 19.5495 10.8007 18.733V12.3555C10.8007 11.5882 11.0356 11.194 11.7046 10.8069L17.2989 7.61813C17.6335 7.42807 17.9253 7.33656 18.1673 7.33656C18.7011 7.33656 19 7.76595 19 8.61065V14.9881C19 15.7765 18.7651 16.1637 18.1103 16.5367L12.5302 19.7044C12.1744 19.9015 11.8754 20 11.6263 20Z" fill="#00AB61"/>
<path d="M5.7331 16.6564C5.29181 16.6564 5 16.2411 5 15.6357V8.89925C5 8.09679 5.07829 7.97008 5.7758 7.56885L11.7473 4.17598C11.9609 4.04927 12.1601 4 12.3452 4C12.7438 4 13.0498 4.28861 13.0214 4.75319L6.42349 8.5121C6.20285 8.63176 6.15302 8.73031 6.15302 8.98372V16.5156C6.01068 16.6142 5.86121 16.6564 5.7331 16.6564Z" fill="#86E2BB"/>
<path d="M7.83594 17.26C7.83594 17.8653 8.1491 18.2806 8.57615 18.2806C8.71138 18.2806 8.85373 18.2384 8.99608 18.1398V10.6079C8.99608 10.3334 9.03878 10.263 9.27366 10.1363L15.8715 6.37038C15.8929 5.91283 15.6011 5.61719 15.1811 5.61719C15.0032 5.61719 14.8039 5.6735 14.5904 5.78613L8.61886 9.18604C7.92135 9.58023 7.83594 9.72805 7.83594 10.5164V17.26Z" fill="#3DD192"/>
</svg>
