<svg width="24" height="24" viewBox="0 0 24 24" fill="none" xmlns="http://www.w3.org/2000/svg">
<path d="M12 19C8.17135 19 5 15.8354 5 12C5 8.17135 8.16457 5 11.9932 5C15.8287 5 19 8.17135 19 12C19 15.8354 15.8287 19 12 19ZM8.57115 12.8403H11.9932C12.2982 12.8403 12.5353 12.6031 12.5353 12.3049V7.85963C12.5353 7.56147 12.2982 7.3243 11.9932 7.3243C11.6951 7.3243 11.4579 7.56147 11.4579 7.85963V11.7696H8.57115C8.26621 11.7696 8.03582 12 8.03582 12.3049C8.03582 12.6031 8.26621 12.8403 8.57115 12.8403Z" fill="#333333"/>
</svg>
