<svg width="24" height="24" viewBox="0 0 24 24" fill="none" xmlns="http://www.w3.org/2000/svg">
<path d="M4.03125 8.73438H19.9609C20.8438 8.73438 21.2891 8.21094 21.2891 7.33594V6.57812C21.2891 5.70312 20.8438 5.17969 19.9609 5.17969H4.03125C3.19531 5.17969 2.70312 5.70312 2.70312 6.57812V7.33594C2.70312 8.21094 3.14844 8.73438 4.03125 8.73438ZM7.89062 19.5625H16.0938C17.6328 19.5625 18.25 18.75 18.4766 17.2344L19.5859 9.79688H4.39844L5.51562 17.2344C5.74219 18.7578 6.35938 19.5625 7.89062 19.5625ZM9.75 17.1484C9.39844 17.1484 9.11719 16.8594 9.11719 16.5156C9.11719 16.3438 9.19531 16.2031 9.3125 16.0859L11.1094 14.2734L9.3125 12.4531C9.19531 12.3438 9.11719 12.1953 9.11719 12.0234C9.11719 11.6875 9.39844 11.4141 9.75 11.4141C9.91406 11.4141 10.0469 11.4844 10.1719 11.5938L11.9844 13.4062L13.8203 11.5859C13.9453 11.4688 14.0859 11.3984 14.2422 11.3984C14.5938 11.3984 14.8672 11.6719 14.8672 12.0234C14.8672 12.1875 14.8047 12.3203 14.6797 12.4453L12.8672 14.2734L14.6719 16.0781C14.7891 16.2031 14.8594 16.3359 14.8594 16.5156C14.8594 16.8594 14.5859 17.1484 14.2422 17.1484C14.0625 17.1484 13.9141 17.0625 13.8047 16.9531L11.9844 15.1484L10.1797 16.9531C10.0625 17.0703 9.91406 17.1484 9.75 17.1484Z" fill="#333333"/>
</svg>
