<svg width="25" height="24" viewBox="0 0 25 24" fill="none" xmlns="http://www.w3.org/2000/svg">
<path d="M16.4375 9.77832L18.9805 8.34961C18.8643 8.24023 18.7344 8.15137 18.5703 8.0625L13.7783 5.36914C13.3545 5.12305 12.917 5 12.4932 5C12.0625 5 11.6318 5.12305 11.2012 5.36914L9.88867 6.10742L16.4375 9.77832ZM12.4932 11.9863L15.3984 10.3594L8.87695 6.6748L6.40918 8.0625C6.25195 8.15137 6.11523 8.24023 6.00586 8.34961L12.4932 11.9863ZM12.9922 19.9434C13.0537 19.9297 13.1221 19.8955 13.1836 19.8613L18.4814 16.8877C19.1377 16.5117 19.4795 16.1221 19.4795 15.1445V9.68945C19.4795 9.51172 19.4658 9.36816 19.4385 9.23145L12.9922 12.875V19.9434ZM11.9941 19.9434V12.875L5.54785 9.23145C5.51367 9.36816 5.5 9.51172 5.5 9.68945V15.1445C5.5 16.1221 5.8418 16.5117 6.50488 16.8877L11.7959 19.8613C11.8643 19.8955 11.9258 19.9297 11.9941 19.9434Z" fill="#333333"/>
</svg>
