<svg width="24" height="24" viewBox="0 0 24 24" fill="none" xmlns="http://www.w3.org/2000/svg">
<path d="M15.9375 9.77832L18.4805 8.34961C18.3643 8.24023 18.2344 8.15137 18.0703 8.0625L13.2783 5.36914C12.8545 5.12305 12.417 5 11.9932 5C11.5625 5 11.1318 5.12305 10.7012 5.36914L9.38867 6.10742L15.9375 9.77832ZM11.9932 11.9863L14.8984 10.3594L8.37695 6.6748L5.90918 8.0625C5.75195 8.15137 5.61523 8.24023 5.50586 8.34961L11.9932 11.9863ZM12.4922 19.9434C12.5537 19.9297 12.6221 19.8955 12.6836 19.8613L17.9814 16.8877C18.6377 16.5117 18.9795 16.1221 18.9795 15.1445V9.68945C18.9795 9.51172 18.9658 9.36816 18.9385 9.23145L12.4922 12.875V19.9434ZM11.4941 19.9434V12.875L5.04785 9.23145C5.01367 9.36816 5 9.51172 5 9.68945V15.1445C5 16.1221 5.3418 16.5117 6.00488 16.8877L11.2959 19.8613C11.3643 19.8955 11.4258 19.9297 11.4941 19.9434Z" fill="#333333"/>
</svg>
