<svg width="24" height="24" viewBox="0 0 24 24" fill="none" xmlns="http://www.w3.org/2000/svg">
<path d="M11.7266 10.9766C12.1484 10.9766 12.4844 10.6406 12.4844 10.2109C12.4844 10 12.4062 9.82812 12.2656 9.6875L10.1406 7.57812C10.5469 7.50781 11.0156 7.46875 11.5234 7.46875C14.5312 7.46875 16.9297 9.875 16.9297 12.9141C16.9297 15.9297 14.5156 18.3516 11.5 18.3516C8.49219 18.3516 6.07031 15.9297 6.07031 12.9141C6.07031 12.4453 5.76562 12.1094 5.3125 12.1094C4.84375 12.1094 4.51562 12.4453 4.51562 12.9141C4.51562 16.7891 7.63281 19.9062 11.5 19.9062C15.375 19.9062 18.4844 16.7891 18.4844 12.9141C18.4844 9.03906 15.3906 5.94531 11.5234 5.94531C11.1562 5.94531 10.7812 5.97656 10.4062 6.03125L12.2734 4.20312C12.4062 4.05469 12.4844 3.88281 12.4844 3.67188C12.4844 3.24219 12.1562 2.89062 11.7266 2.89062C11.5 2.89062 11.3203 2.96875 11.1797 3.125L7.97656 6.38281C7.8125 6.53906 7.73438 6.74219 7.73438 6.95312C7.73438 7.17188 7.80469 7.35938 7.97656 7.53125L11.1875 10.7578C11.3203 10.9062 11.5 10.9766 11.7266 10.9766Z" fill="black"/>
</svg>
