<svg width="24" height="24" viewBox="0 0 24 24" fill="none" xmlns="http://www.w3.org/2000/svg">
<path d="M12.4026 11.2922L17.8362 8.16981C16.6588 6.3343 14.5679 5.11514 12.4026 5V11.2922ZM11.9966 19C13.6206 19 15.1769 18.4243 16.4219 17.3948L11.4959 12.5791C11.3538 12.4436 11.3064 12.3285 11.3064 12.1118V5.02709C7.79459 5.37252 5 8.38655 5 11.9966C5 15.8302 8.16675 19 11.9966 19ZM19 11.9898C19 11.001 18.7699 9.985 18.3639 9.13159L12.856 12.3014L17.2339 16.6091C18.3301 15.3832 19 13.7305 19 11.9898Z" fill="#333333"/>
</svg>
