<svg width="24" height="24" viewBox="0 0 24 24" fill="none" xmlns="http://www.w3.org/2000/svg">
<path d="M20.1159 5.28586L20.7544 4.6133C21.0779 4.27276 21.1035 3.80452 20.7799 3.48101L20.5586 3.25115C20.2691 2.96169 19.7839 3.00426 19.4689 3.31926L18.8048 3.96628L20.1159 5.28586ZM10.036 14.3441L11.7813 13.612L19.4944 5.89882L18.1834 4.59627L10.4702 12.3179L9.70399 14.0036C9.61886 14.1994 9.84021 14.4208 10.036 14.3441ZM6.80091 20.0566H16.719C18.3536 20.0566 19.3156 19.1031 19.3156 17.2813V8.29109L17.613 9.98527V17.128C17.613 17.9453 17.1788 18.354 16.6084 18.354H6.91159C6.12835 18.354 5.70268 17.9453 5.70268 17.128V7.66962C5.70268 6.85233 6.12835 6.44368 6.91159 6.44368H14.1395L15.8337 4.741H6.80091C4.96202 4.741 4 5.6945 4 7.51637V17.2813C4 19.1031 4.96202 20.0566 6.80091 20.0566Z" fill="#333333"/>
</svg>
