<svg width="24" height="24" viewBox="0 0 24 24" fill="none" xmlns="http://www.w3.org/2000/svg">
<path d="M12.2852 19.126C13.2513 19.126 14.1605 18.9414 15.0127 18.5723C15.8649 18.2077 16.6169 17.6995 17.2686 17.0479C17.9202 16.3962 18.4307 15.6442 18.7998 14.792C19.1689 13.9398 19.3535 13.0306 19.3535 12.0645C19.3535 11.0983 19.1689 10.1891 18.7998 9.33691C18.4307 8.4847 17.9202 7.73503 17.2686 7.08789C16.6169 6.4362 15.8649 5.92578 15.0127 5.55664C14.1605 5.1875 13.249 5.00293 12.2783 5.00293C11.3122 5.00293 10.403 5.1875 9.55078 5.55664C8.70312 5.92578 7.95345 6.4362 7.30176 7.08789C6.65462 7.73503 6.14648 8.4847 5.77734 9.33691C5.4082 10.1891 5.22363 11.0983 5.22363 12.0645C5.22363 13.0306 5.4082 13.9398 5.77734 14.792C6.14648 15.6442 6.65462 16.3962 7.30176 17.0479C7.95345 17.6995 8.7054 18.2077 9.55762 18.5723C10.4098 18.9414 11.319 19.126 12.2852 19.126ZM9.23633 11.9346C9.23633 11.8389 9.26823 11.7591 9.33203 11.6953C9.39583 11.6315 9.47559 11.5996 9.57129 11.5996H9.86523L9.53711 9.4873C9.52799 9.44629 9.51888 9.40755 9.50977 9.37109C9.50521 9.33008 9.50293 9.28906 9.50293 9.24805C9.50293 9.10221 9.55078 8.98828 9.64648 8.90625C9.74219 8.81966 9.86523 8.77637 10.0156 8.77637C10.1478 8.77637 10.2617 8.8151 10.3574 8.89258C10.4531 8.96549 10.5078 9.07031 10.5215 9.20703L10.8086 11.5996H11.3213L11.7041 9.28223C11.7269 9.11816 11.7907 8.99284 11.8955 8.90625C12.0003 8.81966 12.1257 8.77637 12.2715 8.77637C12.4173 8.77637 12.5449 8.81966 12.6543 8.90625C12.7637 8.99284 12.8298 9.11589 12.8525 9.27539L13.2217 11.5928H13.7686L14.0557 9.20703C14.0693 9.06576 14.124 8.95866 14.2197 8.88574C14.3154 8.80827 14.4294 8.76953 14.5615 8.76953C14.7074 8.76953 14.8258 8.81055 14.917 8.89258C15.0081 8.97461 15.0537 9.08854 15.0537 9.23438C15.0537 9.27083 15.0514 9.30729 15.0469 9.34375C15.0423 9.38021 15.0378 9.41895 15.0332 9.45996L14.7051 11.5928H14.9854C15.0856 11.5928 15.1654 11.6247 15.2246 11.6885C15.2884 11.7523 15.3203 11.8343 15.3203 11.9346C15.3203 12.0257 15.2884 12.1055 15.2246 12.1738C15.1654 12.2422 15.0856 12.2764 14.9854 12.2764H14.5889L14.1719 14.9971C14.1445 15.1611 14.0762 15.2887 13.9668 15.3799C13.862 15.4665 13.7367 15.5098 13.5908 15.5098C13.4404 15.5098 13.3105 15.4665 13.2012 15.3799C13.0918 15.2887 13.0257 15.1634 13.0029 15.0039L12.5518 12.2764H12.0049L11.5674 15.0039C11.5446 15.168 11.4785 15.2933 11.3691 15.3799C11.2643 15.4665 11.1367 15.5098 10.9863 15.5098C10.8359 15.5098 10.7061 15.4665 10.5967 15.3799C10.4919 15.2887 10.4258 15.1611 10.3984 14.9971L9.97461 12.2832H9.57129C9.47559 12.2832 9.39583 12.249 9.33203 12.1807C9.26823 12.1123 9.23633 12.0303 9.23633 11.9346ZM10.8838 12.2695L11.0342 13.7188L11.2393 12.2695H10.8838ZM12.1143 11.5996H12.4629L12.2852 10.3896L12.1143 11.5996ZM13.3242 12.2695L13.543 13.7529L13.7002 12.2695H13.3242Z" fill="#333333"/>
</svg>
