<svg width="24" height="24" viewBox="0 0 24 24" fill="none" xmlns="http://www.w3.org/2000/svg">
<path d="M14.4062 9.48438C15.25 9.48438 15.9766 8.95312 16.2812 8.21875H18.8516C19.2422 8.21875 19.5703 7.875 19.5703 7.46094C19.5703 7.04688 19.2422 6.71094 18.8516 6.71094H16.2812C15.9844 5.96875 15.2578 5.4375 14.4062 5.4375C13.5547 5.4375 12.8281 5.96875 12.5312 6.71094H4.16406C3.75 6.71094 3.42188 7.04688 3.42188 7.46094C3.42188 7.875 3.75 8.21875 4.16406 8.21875H12.5312C12.8359 8.95312 13.5625 9.48438 14.4062 9.48438ZM14.4062 8.42188C13.8672 8.42188 13.4453 7.99219 13.4453 7.46094C13.4453 6.91406 13.8672 6.49219 14.4062 6.49219C14.9531 6.49219 15.3672 6.91406 15.3672 7.46094C15.3672 7.99219 14.9531 8.42188 14.4062 8.42188ZM4.14062 11.5859C3.75 11.5859 3.42188 11.9219 3.42188 12.3359C3.42188 12.7422 3.75 13.0859 4.14062 13.0859H6.79688C7.10156 13.8359 7.82812 14.3594 8.67969 14.3594C9.52344 14.3594 10.25 13.8359 10.5547 13.0859H18.8281C19.2422 13.0859 19.5703 12.75 19.5703 12.3359C19.5703 11.9219 19.2422 11.5859 18.8281 11.5859H10.5547C10.25 10.8438 9.52344 10.3203 8.67969 10.3203C7.82812 10.3203 7.10156 10.8438 6.79688 11.5859H4.14062ZM8.67969 13.3047C8.14062 13.3047 7.71094 12.875 7.71094 12.3359C7.71094 11.7891 8.14062 11.375 8.67969 11.375C9.21875 11.375 9.64062 11.7891 9.64062 12.3359C9.64062 12.875 9.21875 13.3047 8.67969 13.3047ZM14.4062 19.2344C15.2578 19.2344 15.9844 18.7031 16.2812 17.9609H18.8516C19.2422 17.9609 19.5703 17.625 19.5703 17.2109C19.5703 16.7891 19.2422 16.4609 18.8516 16.4609H16.2812C15.9844 15.7188 15.2578 15.1875 14.4062 15.1875C13.5625 15.1875 12.8281 15.7188 12.5312 16.4609H4.16406C3.75 16.4609 3.42188 16.7969 3.42188 17.2109C3.42188 17.6172 3.75 17.9609 4.16406 17.9609H12.5312C12.8281 18.7031 13.5547 19.2344 14.4062 19.2344ZM14.4062 18.1719C13.8672 18.1719 13.4453 17.7422 13.4453 17.2109C13.4453 16.6641 13.8672 16.25 14.4062 16.25C14.9531 16.25 15.3672 16.6641 15.3672 17.2109C15.3672 17.7422 14.9531 18.1719 14.4062 18.1719Z" fill="#333333"/>
</svg>
