<svg width="24" height="24" viewBox="0 0 24 24" fill="none" xmlns="http://www.w3.org/2000/svg">
<g clip-path="url(#clip0_3134_12162)">
<path d="M6.19502 18.3727H17.805C19.2571 18.3727 20 17.6433 20 16.2047V9.5859C20 8.15407 19.2571 7.4179 17.805 7.4179H16.0962V6.70198C16.0962 5.63487 15.4073 5 14.2524 5H9.74757C8.59266 5 7.90376 5.63487 7.90376 6.70198V7.4179H6.19502C4.74968 7.4179 4 8.15407 4 9.5859V16.2047C4 17.6433 4.74968 18.3727 6.19502 18.3727ZM9.28155 6.76952C9.28155 6.45209 9.49092 6.24947 9.83537 6.24947H14.1646C14.5091 6.24947 14.7252 6.45209 14.7252 6.76952V7.4179H9.28155V6.76952ZM8.59941 13.5234V12.274C8.59941 11.8552 8.88307 11.5715 9.30182 11.5715H10.6796V10.2005C10.6796 9.77501 10.9565 9.4981 11.3753 9.4981H12.6247C13.0367 9.4981 13.3136 9.77501 13.3136 10.2005V11.5715H14.6982C15.1169 11.5715 15.4006 11.8552 15.4006 12.274V13.5234C15.4006 13.9354 15.1169 14.2191 14.6982 14.2191H13.3136V15.5969C13.3136 16.0156 13.0367 16.2993 12.6247 16.2993H11.3753C10.9565 16.2993 10.6796 16.0156 10.6796 15.5969V14.2191H9.30182C8.88307 14.2191 8.59941 13.9354 8.59941 13.5234Z" fill="#333333"/>
</g>
<defs>
<clipPath id="clip0_3134_12162">
<rect width="24" height="24" fill="white"/>
</clipPath>
</defs>
</svg>
