<svg width="30" height="30" viewBox="0 0 30 30" fill="none" xmlns="http://www.w3.org/2000/svg">
<path fill-rule="evenodd" clip-rule="evenodd" d="M18.5434 23.5C19.4443 23.5 20.0578 22.9331 20.0966 22.0322L20.6402 10.4064H21.9061C22.1624 10.4064 22.3566 10.2044 22.3566 9.95592C22.3566 9.69963 22.1546 9.49772 21.9061 9.49772H18.3027V8.23961C18.3027 7.15235 17.5959 6.5 16.4388 6.5H13.4022C12.2529 6.5 11.5539 7.15235 11.5539 8.23961V9.49772H7.95043C7.70968 9.49772 7.5 9.7074 7.5 9.95592C7.5 10.2044 7.70968 10.4064 7.95043 10.4064H9.23184L9.77547 22.0322C9.8143 22.9331 10.4201 23.5 11.3209 23.5H18.5434ZM17.2309 9.49772H12.6256V8.28621C12.6256 7.81247 12.944 7.51736 13.4566 7.51736H16.3922C16.9125 7.51736 17.2309 7.81247 17.2309 8.28621V9.49772ZM12.1208 20.9139C12.1286 21.1313 12.2839 21.2789 12.5091 21.2789C12.7421 21.2789 12.8974 21.1236 12.8897 20.9139L12.6334 12.2159C12.6256 11.9984 12.4703 11.8508 12.2528 11.8508C12.0199 11.8508 11.8645 11.9984 11.8645 12.2236L12.1208 20.9139ZM14.9321 21.2789C14.6992 21.2789 14.5361 21.1313 14.5361 20.9139V12.2236C14.5361 12.0062 14.6992 11.8508 14.9321 11.8508C15.1651 11.8508 15.3282 12.0062 15.3282 12.2236V20.9139C15.3282 21.1313 15.1651 21.2789 14.9321 21.2789ZM16.9669 20.9139C16.9669 21.1313 17.1144 21.2867 17.3552 21.2867C17.5804 21.2867 17.7279 21.1391 17.7357 20.9217L17.992 12.2236C17.9998 12.0062 17.8444 11.8586 17.6114 11.8586C17.394 11.8586 17.2309 11.9984 17.2231 12.2159L16.9669 20.9139Z" fill="#111111"/>
</svg>
