<svg width="24" height="24" viewBox="0 0 24 24" fill="none" xmlns="http://www.w3.org/2000/svg">
<path fill-rule="evenodd" clip-rule="evenodd" d="M9.06789 6.95972C9.32174 7.21356 9.73329 7.21356 9.98713 6.95972L11.3775 5.56934V11.0776H5.86926L7.25964 9.68719C7.51348 9.43335 7.51348 9.0218 7.25964 8.76796C7.0058 8.51411 6.59425 8.51411 6.3404 8.76796L3.84041 11.268C3.58656 11.5218 3.58656 11.9334 3.84041 12.1872L6.3404 14.6872C6.59425 14.941 7.0058 14.941 7.25964 14.6872C7.51348 14.4334 7.51348 14.0218 7.25964 13.768L5.86926 12.3776H11.3775V17.8858L9.98712 16.4954C9.73328 16.2416 9.32172 16.2416 9.06788 16.4954C8.81404 16.7493 8.81404 17.1608 9.06788 17.4147L11.5679 19.9147C11.8217 20.1685 12.2333 20.1685 12.4871 19.9147L14.9871 17.4147C15.241 17.1608 15.241 16.7493 14.9871 16.4954C14.7333 16.2416 14.3217 16.2416 14.0679 16.4954L12.6775 17.8858V12.3776H18.1858L16.7954 13.768C16.5415 14.0218 16.5415 14.4333 16.7954 14.6872C17.0492 14.941 17.4608 14.941 17.7146 14.6872L20.2146 12.1872C20.3365 12.0653 20.405 11.9 20.405 11.7276C20.405 11.5552 20.3365 11.3899 20.2146 11.268L17.7146 8.76795C17.4608 8.51411 17.0492 8.51411 16.7954 8.76795C16.5415 9.02179 16.5415 9.43335 16.7954 9.68719L18.1858 11.0776H12.6775V5.56934L14.0679 6.95972C14.3217 7.21356 14.7333 7.21356 14.9871 6.95972C15.241 6.70588 15.241 6.29432 14.9871 6.04048L12.4871 3.54048C12.2333 3.28664 11.8217 3.28664 11.5679 3.54048L9.06789 6.04048C8.81405 6.29432 8.81405 6.70588 9.06789 6.95972Z" fill="#333333"/>
</svg>
