<svg width="24" height="24" viewBox="0 0 24 24" fill="none" xmlns="http://www.w3.org/2000/svg">
<path d="M3.5 5.51993C3.5 5.24263 3.7357 5 4.013 5H6.44627C7.15338 5 7.34749 5.27036 7.41681 5.80416L7.55546 6.68458H18.8692C19.2504 6.68458 19.5 6.91334 19.5 7.2461C19.5 7.30849 19.4861 7.41941 19.4723 7.50953L18.9177 11.1768C18.7721 12.1681 18.2522 12.792 17.24 12.792H8.44281L8.55373 13.5199C8.61612 13.9428 8.85875 14.2201 9.2539 14.2201H17.2262C17.4965 14.2201 17.7322 14.4419 17.7322 14.74C17.7322 15.0381 17.4965 15.26 17.2262 15.26H9.13605C8.13085 15.26 7.61092 14.643 7.46534 13.6586L6.35615 6.04679H4.013C3.7357 6.04679 3.5 5.80416 3.5 5.51993ZM8.55373 17.5061C8.55373 16.8821 9.05286 16.383 9.68371 16.383C10.3076 16.383 10.8068 16.8821 10.8068 17.5061C10.8068 18.1369 10.3076 18.6291 9.68371 18.6291C9.05286 18.6291 8.55373 18.1369 8.55373 17.5061ZM15.0355 17.5061C15.0355 16.8821 15.5416 16.383 16.1655 16.383C16.7964 16.383 17.2955 16.8821 17.2955 17.5061C17.2955 18.1369 16.7964 18.6291 16.1655 18.6291C15.5416 18.6291 15.0355 18.1369 15.0355 17.5061Z" fill="#333333"/>
</svg>
