<svg width="23" height="22" viewBox="0 0 23 22" fill="none" xmlns="http://www.w3.org/2000/svg">
<g id="Frame 3862">
<path id="Vector" d="M5.87463 18.5053V9.49411V8.77836V4.22014C5.87463 3.79066 6.0535 3.09837 6.63015 2.70673C6.62793 2.56323 6.5717 1.50781 5.42121 1.50781C4.22581 1.50781 4.21209 2.66414 4.21209 2.71329V4.22014V9.49411C4.21209 9.66054 4.07674 9.79548 3.90981 9.79548C3.74287 9.79548 3.60753 9.66054 3.60753 9.49411V4.22014C3.60649 4.098 3.5631 3.01466 2.3984 3.01466C1.20301 3.01466 1.18928 4.17099 1.18928 4.22014V18.5352C1.18928 18.5551 1.18736 18.5748 1.18338 18.5944L0.5 22.001H5.17341L5.87463 18.5053Z" fill="url(#paint0_linear_1215_110144)"/>
<path id="Vector_2" d="M6.47834 8.32534V9.49315V18.5342C6.47834 18.5541 6.47643 18.5738 6.47244 18.5934L5.78906 22H13.3644H13.6726H13.9809H18.6543L17.9709 18.5934C17.9669 18.5738 17.965 18.5541 17.965 18.5342V13.1306C17.965 13.0507 17.9969 12.9741 18.0536 12.9176L22.1135 8.86981C22.1993 8.78269 22.9357 7.98733 22.1132 7.16504C21.2674 6.32391 20.4386 7.13046 20.4039 7.16533L18.481 9.08245C18.3942 9.16868 18.2648 9.19428 18.1516 9.14778C18.0387 9.10114 17.965 8.99121 17.965 8.86937V3.46575C17.964 3.34362 17.9206 2.26027 16.7559 2.26027C15.5605 2.26027 15.5468 3.4166 15.5468 3.46575V6.24189V6.56131V6.88083V8.73973V9.49315C15.5468 9.65958 15.4114 9.79452 15.2445 9.79452C15.0775 9.79452 14.9422 9.65958 14.9422 9.49315V8.73973V7.27219V6.91396V6.52858V3.46575V1.20548C14.9412 1.08334 14.8978 0 13.7331 0C12.5377 0 12.524 1.15633 12.524 1.20548V1.95219V2.3477V2.71233V2.85235V7.9863V8.73973C12.524 8.90616 12.3886 9.0411 12.2217 9.0411C12.0547 9.0411 11.9194 8.90616 11.9194 8.73973V8.21233V7.9863V2.71233C11.919 2.66877 11.9122 2.50236 11.8522 2.30705C11.819 2.19937 11.7695 2.08356 11.6952 1.97349C11.6157 1.85584 11.5073 1.74669 11.3614 1.663C11.197 1.56875 10.9859 1.50685 10.7103 1.50685C10.5337 1.50685 10.3856 1.53426 10.2569 1.57743C10.1386 1.61707 10.0386 1.67118 9.95457 1.73545C9.81647 1.84105 9.71876 1.97071 9.65229 2.1024C9.5051 2.39398 9.50115 2.68807 9.50115 2.71233V4.21918V8.73973V9.49315C9.50115 9.65958 9.3658 9.79452 9.19887 9.79452C9.03194 9.79452 8.89659 9.65958 8.89659 9.49315V8.73973V4.21918C8.89556 4.09704 8.85216 3.0137 7.68747 3.0137C7.51088 3.0137 7.36282 3.04111 7.23405 3.08428C7.11576 3.12392 7.01582 3.17803 6.93177 3.2423C6.79367 3.3479 6.69596 3.47756 6.62948 3.60925C6.48229 3.90083 6.47834 4.19492 6.47834 4.21918V8.32534ZM10.2569 9.45548V9.49315H10.2065L10.2569 9.45548Z" fill="url(#paint1_linear_1215_110144)"/>
<path id="Vector_3" d="M8.89692 2.82288V2.71233C8.89692 2.28284 9.07579 1.59056 9.65243 1.19891C9.65022 1.05542 9.59399 0 8.4435 0C7.2481 0 7.23438 1.15633 7.23438 1.20548V2.45696C7.37269 2.42821 7.52247 2.41096 7.6878 2.41096C8.22913 2.41096 8.61982 2.57956 8.89692 2.82288Z" fill="url(#paint2_linear_1215_110144)"/>
</g>
<defs>
<linearGradient id="paint0_linear_1215_110144" x1="8.1178" y1="10.5062" x2="-0.802779" y2="8.07219" gradientUnits="userSpaceOnUse">
<stop stop-color="#56A1F6"/>
<stop offset="1" stop-color="#6BA9EE"/>
</linearGradient>
<linearGradient id="paint1_linear_1215_110144" x1="26.5537" y1="9.66007" x2="8.90083" y2="-2.57009" gradientUnits="userSpaceOnUse">
<stop stop-color="#56A1F6"/>
<stop offset="1" stop-color="#6BA9EE"/>
</linearGradient>
<linearGradient id="paint2_linear_1215_110144" x1="10.2392" y1="1.23951" x2="7.89172" y2="-0.594744" gradientUnits="userSpaceOnUse">
<stop stop-color="#56A1F6"/>
<stop offset="1" stop-color="#6BA9EE"/>
</linearGradient>
</defs>
</svg>
