<svg width="24" height="24" viewBox="0 0 24 24" fill="none" xmlns="http://www.w3.org/2000/svg">
<path d="M5.44995 17.9363C5.44995 19.2953 6.14834 20 7.49478 20H13.3839C14.7303 20 15.4224 19.289 15.4224 17.9363V16.7723H16.492C17.8385 16.7723 18.5369 16.0676 18.5369 14.7086V6.0637C18.5369 4.70468 17.8385 4 16.492 4H10.6029C9.26277 4 8.55809 4.69839 8.55809 6.0637V7.22139H7.49478C6.14834 7.22139 5.44995 7.93236 5.44995 9.2851V17.9363ZM12.0626 6.24617C11.7795 6.24617 11.6348 6.05741 11.6348 5.84978V5.70507C11.6348 5.51632 11.7732 5.30869 12.0626 5.30869H15.0386C15.328 5.30869 15.4665 5.51632 15.4665 5.70507V5.84978C15.4665 6.05741 15.3155 6.24617 15.0386 6.24617H12.0626ZM6.68314 17.8608V9.3606C6.68314 8.78175 6.98515 8.45458 7.59545 8.45458H9.52703V11.9025C9.52703 12.8022 9.97374 13.2426 10.8672 13.2426H14.1892V17.8608C14.1892 18.4459 13.8872 18.7668 13.2769 18.7668H7.59545C6.98515 18.7668 6.68314 18.4459 6.68314 17.8608ZM10.9867 12.1541C10.7288 12.1541 10.6155 12.0409 10.6155 11.7829V8.69367L14.0194 12.1541H10.9867Z" fill="#333333"/>
</svg>
