<svg width="24" height="24" viewBox="0 0 24 24" xmlns="http://www.w3.org/2000/svg">
<path d="M11.9964 19.5C16.1071 19.5 19.5 16.1054 19.5 12C19.5 7.89458 16.0998 4.5 11.9891 4.5C7.88569 4.5 4.5 7.89458 4.5 12C4.5 16.1054 7.89294 19.5 11.9964 19.5ZM8.48743 12.0073C8.48743 11.5793 8.79193 11.2819 9.21242 11.2819H11.2786V9.2147C11.2786 8.794 11.5686 8.49661 11.9819 8.49661C12.4096 8.49661 12.7069 8.794 12.7069 9.2147V11.2819H14.7803C15.1936 11.2819 15.4981 11.5793 15.4981 12.0073C15.4981 12.4207 15.1936 12.7181 14.7803 12.7181H12.7069V14.7853C12.7069 15.1987 12.4096 15.5034 11.9819 15.5034C11.5686 15.5034 11.2786 15.1987 11.2786 14.7853V12.7181H9.21242C8.79193 12.7181 8.48743 12.4207 8.48743 12.0073Z" />
</svg>
