<svg width="24" height="24" viewBox="0 0 24 24" fill="none" xmlns="http://www.w3.org/2000/svg">
<g id="Icon/Close">
<path id="&#244;&#128;&#129;&#161;" fill-rule="evenodd" clip-rule="evenodd" d="M14.7032 18.4519C13.8597 18.8173 12.9575 19 11.9966 19C11.0403 19 10.1403 18.8173 9.29676 18.4519C8.4532 18.0865 7.70888 17.5813 7.0638 16.9362C6.41872 16.2911 5.91348 15.5457 5.54809 14.6999C5.1827 13.854 5 12.953 5 11.9966C5 11.0403 5.1827 10.1403 5.54809 9.29676C5.91348 8.4532 6.41759 7.70888 7.06042 7.0638C7.70324 6.41872 8.44643 5.91348 9.29 5.54809C10.1336 5.1827 11.0358 5 11.9966 5C12.953 5 13.854 5.1827 14.6999 5.54809C15.5457 5.91348 16.2911 6.41872 16.9362 7.0638C17.5813 7.70888 18.0865 8.4532 18.4519 9.29676C18.8173 10.1403 19 11.0403 19 11.9966C19 12.953 18.8173 13.854 18.4519 14.6999C18.0865 15.5457 17.5813 16.2911 16.9362 16.9362C16.2911 17.5813 15.5468 18.0865 14.7032 18.4519ZM13.8304 14.7574C13.9657 14.8882 14.1236 14.9536 14.304 14.9536C14.4845 14.9536 14.6367 14.8893 14.7608 14.7608C14.8848 14.6322 14.9468 14.4777 14.9468 14.2972C14.9468 14.1258 14.8837 13.9725 14.7574 13.8371L12.9236 12.0034L14.7641 10.1561C14.8904 10.0253 14.9536 9.87417 14.9536 9.70275C14.9536 9.52231 14.8916 9.37007 14.7675 9.24601C14.6435 9.12196 14.4912 9.05993 14.3108 9.05993C14.1348 9.05993 13.9837 9.12534 13.8574 9.25616L11.9966 11.0967L10.1561 9.25616C10.0388 9.13436 9.88545 9.07347 9.69599 9.07347C9.51555 9.07347 9.3633 9.13436 9.23925 9.25616C9.11519 9.37796 9.05317 9.53134 9.05317 9.71629C9.05317 9.88771 9.11632 10.0366 9.24263 10.1629L11.0831 12.0034L9.24263 13.8439C9.11632 13.9702 9.05317 14.1213 9.05317 14.2972C9.05317 14.4777 9.11519 14.6322 9.23925 14.7608C9.3633 14.8893 9.51555 14.9536 9.69599 14.9536C9.88545 14.9536 10.0456 14.8882 10.1764 14.7574L11.9966 12.9236L13.8304 14.7574Z" fill="#BDBDBD"/>
</g>
</svg>
