<svg width="40" height="41" viewBox="0 0 40 41" fill="none" xmlns="http://www.w3.org/2000/svg">
<rect y="0.5" width="40" height="40" rx="10" fill="#F8FBFF"/>
<path d="M10 28.864C10 31.2584 11.2305 32.5 13.6028 32.5H25.4088C27.7811 32.5 29.0115 31.2584 29.0115 28.864V12.136C29.0115 9.75266 27.7811 8.5 25.4088 8.5H13.6028C11.2305 8.5 10 9.75266 10 12.136V28.864ZM12.1727 28.7309V12.2691C12.1727 11.2381 12.7048 10.6727 13.7801 10.6727H25.2203C26.2956 10.6727 26.8388 11.2381 26.8388 12.2691V28.7309C26.8388 29.7619 26.2956 30.3273 25.2203 30.3273H13.7801C12.7048 30.3273 12.1727 29.7619 12.1727 28.7309ZM14.7889 14.8298C15.3654 14.8298 15.8199 14.3642 15.8199 13.7988C15.8199 13.2224 15.3654 12.7679 14.7889 12.7679C14.2236 12.7679 13.758 13.2335 13.758 13.7988C13.758 14.3642 14.2236 14.8298 14.7889 14.8298ZM17.8374 14.5194H24.533C24.9321 14.5194 25.2536 14.1979 25.2536 13.7988C25.2536 13.3998 24.9321 13.0783 24.533 13.0783H17.8374C17.4383 13.0783 17.1169 13.3998 17.1169 13.7988C17.1169 14.1979 17.4383 14.5194 17.8374 14.5194ZM14.7889 18.1333C15.3654 18.1333 15.8199 17.6677 15.8199 17.1023C15.8199 16.5259 15.3654 16.0824 14.7889 16.0824C14.2125 16.0824 13.758 16.537 13.758 17.1023C13.758 17.6677 14.2125 18.1333 14.7889 18.1333ZM17.8374 17.8229H24.533C24.9432 17.8229 25.2536 17.5014 25.2536 17.1023C25.2536 16.7032 24.9432 16.3928 24.533 16.3928H17.8374C17.4273 16.3928 17.1169 16.7032 17.1169 17.1023C17.1169 17.5014 17.4273 17.8229 17.8374 17.8229ZM14.7889 21.603C15.3654 21.603 15.8199 21.1374 15.8199 20.5721C15.8199 19.9956 15.3654 19.53 14.7889 19.53C14.2236 19.53 13.758 20.0067 13.758 20.5721C13.758 21.1263 14.2236 21.603 14.7889 21.603ZM17.8374 21.2926H24.533C24.9321 21.2926 25.2536 20.96 25.2536 20.5721C25.2536 20.173 24.9432 19.8515 24.533 19.8515H17.8374C17.4273 19.8515 17.1169 20.173 17.1169 20.5721C17.1169 20.96 17.4383 21.2926 17.8374 21.2926Z" fill="#0D6DFF"/>
</svg>
