<svg width="40" height="41" viewBox="0 0 40 41" fill="none" xmlns="http://www.w3.org/2000/svg">
<rect y="0.5" width="40" height="40" rx="10" fill="#F8FBFF"/>
<path d="M23.5984 16.4855C24.646 16.4855 25.5383 15.8356 25.9069 14.9142H29.1174C29.5926 14.9142 30 14.4971 30 13.9927C30 13.4884 29.6023 13.0713 29.1174 13.0713H25.9166C25.548 12.1499 24.646 11.5 23.5984 11.5C22.5509 11.5 21.6489 12.1499 21.2803 13.0713H10.9117C10.3977 13.0713 10 13.4884 10 13.9927C10 14.4971 10.4074 14.9142 10.9117 14.9142H21.2803C21.6489 15.8356 22.5509 16.4855 23.5984 16.4855ZM23.5984 15.176C22.9389 15.176 22.4054 14.6523 22.4054 13.9927C22.4054 13.3138 22.9389 12.7997 23.5984 12.7997C24.2677 12.7997 24.7818 13.3138 24.7818 13.9927C24.7818 14.6523 24.2677 15.176 23.5984 15.176ZM10.8729 19.114C10.3977 19.114 10 19.5213 10 20.0354C10 20.5301 10.4074 20.9471 10.8729 20.9471H14.1998C14.5587 21.8686 15.4607 22.5281 16.5179 22.5281C17.5558 22.5281 18.4578 21.8686 18.8264 20.9471H29.0883C29.5926 20.9471 30 20.5398 30 20.0354C30 19.5213 29.6023 19.114 29.0883 19.114H18.8264C18.4578 18.1925 17.5558 17.5427 16.5179 17.5427C15.4704 17.5427 14.5684 18.1925 14.1998 19.114H10.8729ZM16.5179 21.2187C15.8487 21.2187 15.3249 20.695 15.3249 20.0354C15.3249 19.3565 15.8487 18.8424 16.5179 18.8424C17.1872 18.8424 17.7013 19.3565 17.7013 20.0354C17.7013 20.695 17.1872 21.2187 16.5179 21.2187ZM23.5984 28.5611C24.646 28.5611 25.548 27.9113 25.9166 26.9898H29.1174C29.5926 26.9898 30 26.5727 30 26.0684C30 25.5543 29.6023 25.1469 29.1174 25.1469H25.9069C25.548 24.2255 24.646 23.5757 23.5984 23.5757C22.5509 23.5757 21.6489 24.2255 21.2803 25.1469H10.9117C10.3977 25.1469 10 25.564 10 26.0684C10 26.5727 10.4074 26.9898 10.9117 26.9898H21.2803C21.6489 27.9113 22.5509 28.5611 23.5984 28.5611ZM23.5984 27.2614C22.9389 27.2614 22.4054 26.7279 22.4054 26.0684C22.4054 25.3991 22.9389 24.8754 23.5984 24.8754C24.2677 24.8754 24.7818 25.3991 24.7818 26.0684C24.7818 26.7279 24.2677 27.2614 23.5984 27.2614Z" fill="#0D6DFF"/>
</svg>
