<svg width="24" height="24" viewBox="0 0 24 24" fill="none" xmlns="http://www.w3.org/2000/svg">
<path d="M12.2969 17.71C13.222 17.71 14.0924 17.5983 14.9082 17.375C15.7285 17.1562 16.4827 16.8669 17.1709 16.5068C17.8636 16.1423 18.4811 15.7412 19.0234 15.3037C19.5703 14.8662 20.0352 14.4264 20.418 13.9844C20.8008 13.5423 21.0924 13.1344 21.293 12.7607C21.4935 12.387 21.5938 12.084 21.5938 11.8516C21.5938 11.6191 21.4935 11.3161 21.293 10.9424C21.0924 10.5687 20.8008 10.1631 20.418 9.72559C20.0352 9.28353 19.5703 8.84375 19.0234 8.40625C18.4766 7.96875 17.8568 7.56999 17.1641 7.20996C16.4759 6.84538 15.724 6.55371 14.9082 6.33496C14.0924 6.11165 13.222 6 12.2969 6C11.3854 6 10.5241 6.11165 9.71289 6.33496C8.90169 6.55371 8.14974 6.84538 7.45703 7.20996C6.76888 7.56999 6.14909 7.96875 5.59766 8.40625C5.05078 8.84375 4.58366 9.28353 4.19629 9.72559C3.80892 10.1631 3.5127 10.5687 3.30762 10.9424C3.10254 11.3161 3 11.6191 3 11.8516C3 12.084 3.10254 12.387 3.30762 12.7607C3.5127 13.1344 3.80892 13.5423 4.19629 13.9844C4.58366 14.4264 5.05078 14.8662 5.59766 15.3037C6.14909 15.7412 6.76888 16.1423 7.45703 16.5068C8.14974 16.8669 8.90169 17.1562 9.71289 17.375C10.5241 17.5983 11.3854 17.71 12.2969 17.71ZM12.3037 15.5908C11.7796 15.5908 11.2897 15.4928 10.834 15.2969C10.3828 15.1009 9.98405 14.8298 9.6377 14.4834C9.2959 14.137 9.0293 13.7406 8.83789 13.2939C8.64648 12.8428 8.5485 12.362 8.54395 11.8516C8.53939 11.332 8.63509 10.8467 8.83105 10.3955C9.02702 9.93978 9.2959 9.54102 9.6377 9.19922C9.97949 8.85742 10.3783 8.5931 10.834 8.40625C11.2897 8.21484 11.7796 8.11914 12.3037 8.11914C12.8232 8.11914 13.3086 8.21484 13.7598 8.40625C14.2155 8.5931 14.6143 8.8597 14.9561 9.20605C15.2979 9.54785 15.5667 9.94434 15.7627 10.3955C15.9587 10.8467 16.0566 11.332 16.0566 11.8516C16.0566 12.362 15.9587 12.8428 15.7627 13.2939C15.5667 13.7406 15.2979 14.137 14.9561 14.4834C14.6143 14.8298 14.2155 15.1009 13.7598 15.2969C13.3086 15.4928 12.8232 15.5908 12.3037 15.5908ZM12.2969 13.2461C12.6842 13.2461 13.0146 13.1094 13.2881 12.8359C13.5661 12.5625 13.7051 12.2367 13.7051 11.8584C13.7051 11.4756 13.5661 11.1475 13.2881 10.874C13.0146 10.596 12.6842 10.457 12.2969 10.457C11.9095 10.457 11.5791 10.596 11.3057 10.874C11.0322 11.1475 10.8955 11.4756 10.8955 11.8584C10.8955 12.2367 11.0322 12.5625 11.3057 12.8359C11.5791 13.1094 11.9095 13.2461 12.2969 13.2461Z" fill="black"/>
</svg>
