<svg width="24" height="24" viewBox="0 0 24 24" fill="none" xmlns="http://www.w3.org/2000/svg">
<path fill-rule="evenodd" clip-rule="evenodd" d="M8.99066 6H15.0093C15.6169 6 16.1915 6.27618 16.5711 6.75061L19.1713 10.0009C19.3841 10.2669 19.5 10.5973 19.5 10.9379V16.4706C19.5 17.0229 19.0523 17.4706 18.5 17.4706H5.5C4.94772 17.4706 4.5 17.0229 4.5 16.4706V10.9379C4.5 10.5973 4.61592 10.2669 4.8287 10.0009L7.42892 6.75061C7.80847 6.27618 8.38309 6 8.99066 6ZM8.61298 7.66502L6.11379 10.5212C6.00064 10.6506 6.09248 10.8529 6.26431 10.8529H17.7357C17.9076 10.8529 17.9994 10.6506 17.8863 10.5212L15.3871 7.66502C15.1972 7.44801 14.9229 7.32353 14.6345 7.32353H9.36556C9.0772 7.32353 8.80287 7.44801 8.61298 7.66502Z" fill="#333333"/>
<rect x="9.79395" y="13.0588" width="4.41176" height="1.14706" rx="0.573529" fill="white"/>
</svg>
