<svg width="24" height="24" viewBox="0 0 24 24" fill="none" xmlns="http://www.w3.org/2000/svg">
<path d="M7.09286 13.1023H16.9132C18.2667 13.1023 19.005 12.3699 19.005 11.0632V9.34058C19.005 8.56128 19.046 7.97534 18.6124 7.6355L16.4737 5.8894C15.7706 5.32104 15.2784 5.11011 14.2706 5.11011H9.73544C8.72177 5.11011 8.23544 5.32104 7.52645 5.8894L5.38778 7.6355C4.96005 7.97534 5.00106 8.56128 5.00106 9.34058V11.0632C5.00106 12.3699 5.73934 13.1023 7.09286 13.1023ZM12.003 10.2605C11.2061 10.2605 10.7374 9.58667 10.7374 8.97729V8.95386C10.7374 8.72534 10.5968 8.52026 10.2393 8.52026H6.89364C6.63583 8.52026 6.54794 8.39136 6.75887 8.21558L8.63387 6.68042C8.89755 6.44604 9.09091 6.35229 9.4952 6.35229H14.505C14.9093 6.35229 15.1026 6.4519 15.3722 6.68042L17.2472 8.198C17.4698 8.3855 17.3643 8.52026 17.1124 8.52026H13.7667C13.4093 8.52026 13.2628 8.72534 13.2628 8.95386V8.97729C13.2628 9.58667 12.7999 10.2605 12.003 10.2605ZM7.09286 18.7156H16.9132C18.255 18.7156 19.005 17.9714 19.005 16.6355V14.7781C19.005 14.3621 18.794 14.0808 18.3839 14.0808H13.8018C13.4327 14.0808 13.2862 14.2859 13.2862 14.5261V14.5437C13.2862 15.1648 12.8175 15.8503 12.003 15.8503C11.1886 15.8503 10.714 15.1648 10.714 14.5437V14.5261C10.714 14.2859 10.5675 14.0808 10.2042 14.0808H5.65731C5.24716 14.0808 5.00106 14.3621 5.00106 14.7781V16.6355C5.00106 17.9714 5.7452 18.7156 7.09286 18.7156Z" fill="#333333"/>
</svg>
