<svg width="24" height="24" viewBox="0 0 24 24" fill="none" xmlns="http://www.w3.org/2000/svg">
<path d="M9.99189 6.94715C9.58863 6.94715 9.34148 6.6935 9.34148 6.26423V5.5748C9.34148 5.14553 9.58863 4.89187 9.99189 4.89187H10.5057C10.5577 4.12439 11.1951 3.5 11.9886 3.5C12.7821 3.5 13.4195 4.12439 13.4716 4.89187H13.9854C14.3886 4.89187 14.6358 5.14553 14.6358 5.5748V6.26423C14.6358 6.6935 14.3886 6.94715 13.9854 6.94715H9.99189ZM11.9886 5.52927C12.3073 5.52927 12.5675 5.2626 12.5675 4.95041C12.5675 4.63171 12.3073 4.37154 11.9886 4.37154C11.6699 4.37154 11.4098 4.63171 11.4098 4.95041C11.4098 5.2626 11.6699 5.52927 11.9886 5.52927ZM8.54148 19.5C7.1301 19.5 6.34961 18.713 6.34961 17.2821V7.44797C6.34961 6.02358 7.1301 5.23008 8.49595 5.23008H8.61953C8.5805 5.31463 8.5675 5.4187 8.5675 5.51626V6.26423C8.5675 7.11626 9.13985 7.72764 9.99189 7.72764H13.9854C14.8374 7.72764 15.4098 7.11626 15.4098 6.26423V5.51626C15.4098 5.4187 15.3968 5.31463 15.3577 5.23008H15.4813C16.8472 5.23008 17.6277 6.02358 17.6277 7.44797V17.2821C17.6277 18.713 16.8472 19.5 15.4358 19.5H8.54148ZM9.19189 11.1878H14.7919C15.0781 11.1878 15.3187 10.9472 15.3187 10.661C15.3187 10.3683 15.0781 10.1276 14.7919 10.1276H9.19189C8.8992 10.1276 8.66506 10.3683 8.66506 10.661C8.66506 10.9472 8.8992 11.1878 9.19189 11.1878ZM9.19189 13.5878H14.7919C15.0846 13.5878 15.3187 13.3537 15.3187 13.061C15.3187 12.7683 15.0846 12.5341 14.7919 12.5341H9.19189C8.8992 12.5341 8.66506 12.7683 8.66506 13.061C8.66506 13.3537 8.8927 13.5878 9.19189 13.5878ZM9.19189 16.1244H12.0992C12.3919 16.1244 12.626 15.8772 12.626 15.5911C12.626 15.3049 12.3919 15.0707 12.0992 15.0707H9.19189C8.8992 15.0707 8.66506 15.3049 8.66506 15.5911C8.66506 15.8772 8.8992 16.1244 9.19189 16.1244Z" fill="#333333"/>
</svg>
