
<svg width="24" height="24" viewBox="0 0 24 24" fill="none" xmlns="http://www.w3.org/2000/svg">
<path fill-rule="evenodd" clip-rule="evenodd" d="M6.37714 19.659H17.6229C19.1924 19.659 20 18.8514 20 17.2819V7.3619C20 5.80762 19.1924 5 17.6229 5H6.37714C4.80762 5 4 5.80762 4 7.3619V17.2819C4 18.8514 4.80762 19.659 6.37714 19.659ZM18.8114 17.3124C18.8114 18.12 18.4457 18.4857 17.6381 18.4857H6.34666C5.55428 18.4857 5.18856 18.12 5.18856 17.3124V9.92191C5.18856 9.05333 5.64571 8.61143 6.4838 8.61143H17.5009C18.339 8.61143 18.8114 9.05333 18.8114 9.92191V17.3124ZM10.9029 11.5829H10.3543C10.0495 11.5829 9.95809 11.5219 9.95809 11.2171V10.6533C9.95809 10.3486 10.0495 10.2724 10.3543 10.2724H10.9029C11.2229 10.2724 11.299 10.3486 11.299 10.6533V11.2171C11.299 11.5219 11.2229 11.5829 10.9029 11.5829ZM13.0972 11.5829H13.661C13.9505 11.5829 14.0419 11.5219 14.0419 11.2171V10.6533C14.0419 10.3486 13.9505 10.2724 13.661 10.2724H13.0972C12.7924 10.2724 12.701 10.3486 12.701 10.6533V11.2171C12.701 11.5219 12.7924 11.5829 13.0972 11.5829ZM16.3886 11.5829H15.8248C15.52 11.5829 15.4286 11.5219 15.4286 11.2171V10.6533C15.4286 10.3486 15.52 10.2724 15.8248 10.2724H16.3886C16.6933 10.2724 16.7848 10.3486 16.7848 10.6533V11.2171C16.7848 11.5219 16.6933 11.5829 16.3886 11.5829ZM7.61143 14.28H8.17524C8.48 14.28 8.57143 14.2038 8.57143 13.899V13.3352C8.57143 13.0305 8.48 12.9543 8.17524 12.9543H7.61143C7.30666 12.9543 7.21524 13.0305 7.21524 13.3352V13.899C7.21524 14.2038 7.30666 14.28 7.61143 14.28ZM10.9029 14.28H10.3543C10.0495 14.28 9.95809 14.2038 9.95809 13.899V13.3352C9.95809 13.0305 10.0495 12.9543 10.3543 12.9543H10.9029C11.2229 12.9543 11.299 13.0305 11.299 13.3352V13.899C11.299 14.2038 11.2229 14.28 10.9029 14.28ZM13.0972 14.28H13.661C13.9505 14.28 14.0419 14.2038 14.0419 13.899V13.3352C14.0419 13.0305 13.9505 12.9543 13.661 12.9543H13.0972C12.7924 12.9543 12.701 13.0305 12.701 13.3352V13.899C12.701 14.2038 12.7924 14.28 13.0972 14.28ZM16.3886 14.28H15.8248C15.52 14.28 15.4286 14.2038 15.4286 13.899V13.3352C15.4286 13.0305 15.52 12.9543 15.8248 12.9543H16.3886C16.6933 12.9543 16.7848 13.0305 16.7848 13.3352V13.899C16.7848 14.2038 16.6933 14.28 16.3886 14.28ZM7.61143 16.9771H8.17524C8.48 16.9771 8.57143 16.9009 8.57143 16.5962V16.0324C8.57143 15.7276 8.48 15.6667 8.17524 15.6667H7.61143C7.30666 15.6667 7.21524 15.7276 7.21524 16.0324V16.5962C7.21524 16.9009 7.30666 16.9771 7.61143 16.9771ZM10.9029 16.9771H10.3543C10.0495 16.9771 9.95809 16.9009 9.95809 16.5962V16.0324C9.95809 15.7276 10.0495 15.6667 10.3543 15.6667H10.9029C11.2229 15.6667 11.299 15.7276 11.299 16.0324V16.5962C11.299 16.9009 11.2229 16.9771 10.9029 16.9771ZM13.0972 16.9771H13.661C13.9505 16.9771 14.0419 16.9009 14.0419 16.5962V16.0324C14.0419 15.7276 13.9505 15.6667 13.661 15.6667H13.0972C12.7924 15.6667 12.701 15.7276 12.701 16.0324V16.5962C12.701 16.9009 12.7924 16.9771 13.0972 16.9771Z" fill="#111111"/>
</svg>
