<svg width="24" height="24" viewBox="0 0 24 24" fill="none" xmlns="http://www.w3.org/2000/svg">
<path fill-rule="evenodd" clip-rule="evenodd" d="M14.2509 19.5266C13.4754 19.8422 12.6122 20 11.6615 20C10.5234 20 9.53061 19.7904 8.68307 19.3712C7.83553 18.9521 7.17647 18.3652 6.70588 17.6107C6.23529 16.8562 6 15.9735 6 14.9626C6 14.43 6.04202 13.9565 6.12605 13.5423C6.21008 13.1281 6.31333 12.7545 6.43577 12.4216C6.55822 12.0888 6.68187 11.7744 6.80672 11.4785C6.93157 11.1826 7.03481 10.8892 7.11645 10.5982C7.19808 10.3073 7.2389 9.99661 7.2389 9.6662C7.2389 9.50347 7.23049 9.3247 7.21369 9.12991C7.19688 8.93512 7.18848 8.79088 7.18848 8.69718C7.18848 8.53444 7.23409 8.40129 7.32533 8.29773C7.41657 8.19417 7.53661 8.14239 7.68547 8.14239C7.93998 8.14239 8.19808 8.2213 8.45978 8.3791C8.72149 8.53691 8.95678 8.75512 9.16567 9.03375C9.27011 9.17306 9.36224 9.32316 9.44208 9.48405L9.48691 9.58841L9.5042 9.52196C9.53541 9.36169 9.55102 9.19772 9.55102 9.03005C9.54622 8.54184 9.45858 8.07829 9.28812 7.63939C9.11765 7.20049 8.90156 6.78379 8.63986 6.38927C8.37815 5.99476 8.10564 5.62244 7.82233 5.27231C7.7455 5.18354 7.68788 5.09231 7.64946 4.99861C7.61104 4.90492 7.59184 4.81122 7.59184 4.71752C7.59184 4.48081 7.69148 4.30205 7.89076 4.18123C8.09004 4.06041 8.36014 4 8.70108 4C9.33493 4 10.0036 4.07767 10.7071 4.23301C11.4106 4.38835 12.1092 4.62999 12.8031 4.95793C13.497 5.28587 14.1561 5.70257 14.7803 6.20804C15.4046 6.71352 15.958 7.31268 16.4406 8.00555C16.9232 8.69841 17.3037 9.49114 17.5822 10.3837C17.8607 11.2763 18 12.2749 18 13.3796C18 14.3708 17.8499 15.2732 17.5498 16.0869C17.2497 16.9006 16.8187 17.5984 16.2569 18.1803C15.6951 18.7622 15.0264 19.211 14.2509 19.5266ZM10.2038 17.349C10.6144 17.7311 11.1558 17.9222 11.8281 17.9222C12.3995 17.9222 12.8737 17.794 13.2507 17.5376C13.6276 17.2811 13.9097 16.9433 14.097 16.5242C14.2843 16.105 14.3779 15.6513 14.3779 15.1631C14.3779 14.6798 14.2879 14.1941 14.1078 13.7059C13.9277 13.2177 13.66 12.7664 13.3047 12.3522C12.9493 11.938 12.5076 11.6026 11.9794 11.3462C11.9457 11.3314 11.9193 11.3326 11.9001 11.3499C11.8809 11.3671 11.8737 11.393 11.8785 11.4275C11.9409 12.0341 11.9313 12.5975 11.8497 13.1178C11.7681 13.6381 11.6312 14.0313 11.4391 14.2976C11.3479 14.0856 11.2459 13.8871 11.133 13.7022C11.0202 13.5172 10.8797 13.3483 10.7116 13.1955C10.6876 13.1757 10.6648 13.1696 10.6432 13.177C10.6216 13.1844 10.6084 13.2053 10.6036 13.2398C10.5748 13.4519 10.5076 13.6455 10.4019 13.8205C10.2963 13.9956 10.181 14.178 10.0562 14.3679C9.93133 14.5578 9.82209 14.7698 9.72845 15.0041C9.63481 15.2383 9.588 15.5182 9.588 15.8436C9.588 16.465 9.79328 16.9668 10.2038 17.349Z" fill="#333333"/>
</svg>
