<svg width="20" height="21" viewBox="0 0 20 21" fill="none" xmlns="http://www.w3.org/2000/svg">
<path d="M8.91264 15.2784C8.54532 15.2784 8.24565 15.1237 7.97499 14.7658L5.6067 11.8935C5.4327 11.6711 5.3457 11.4486 5.3457 11.2068C5.3457 10.7039 5.74203 10.2978 6.24469 10.2978C6.54435 10.2978 6.77635 10.4041 7.02768 10.7233L8.88364 13.0734L12.8662 6.6904C13.0789 6.35191 13.3496 6.1875 13.6589 6.1875C14.1519 6.1875 14.5965 6.52599 14.5965 7.03856C14.5965 7.261 14.4806 7.50278 14.3452 7.71555L9.81163 14.7658C9.59897 15.1043 9.27997 15.2784 8.91264 15.2784Z" fill="#0D6DFF"/>
</svg>
