<svg width="21" height="21" viewBox="0 0 21 21" fill="none" xmlns="http://www.w3.org/2000/svg">
<g id="Institution&#38;Location">
<path id="&#244;&#128;&#157;&#147;" d="M14.1431 19.1484H18.3758C18.9589 19.1484 19.4119 18.974 19.7347 18.625C20.0627 18.2812 20.2267 17.7995 20.2267 17.1797V7.96875C20.2267 7.34896 20.0627 6.86719 19.7347 6.52344C19.4119 6.17448 18.9589 6 18.3758 6H14.7132V17.1797C14.7132 17.5443 14.6637 17.8906 14.5648 18.2188C14.4711 18.5469 14.3305 18.8568 14.1431 19.1484ZM16.5797 10.1406V8.92188C16.5797 8.74479 16.6656 8.65625 16.8374 8.65625H18.0869C18.2639 8.65625 18.3524 8.74479 18.3524 8.92188V10.1406C18.3524 10.3229 18.2639 10.4141 18.0869 10.4141H16.8374C16.6656 10.4141 16.5797 10.3229 16.5797 10.1406ZM16.5797 13.1797V11.9609C16.5797 11.7839 16.6656 11.6953 16.8374 11.6953H18.0869C18.2639 11.6953 18.3524 11.7839 18.3524 11.9609V13.1797C18.3524 13.362 18.2639 13.4531 18.0869 13.4531H16.8374C16.6656 13.4531 16.5797 13.362 16.5797 13.1797ZM16.5797 16.2188V15C16.5797 14.8229 16.6656 14.7344 16.8374 14.7344H18.0869C18.2639 14.7344 18.3524 14.8229 18.3524 15V16.2188C18.3524 16.401 18.2639 16.4922 18.0869 16.4922H16.8374C16.6656 16.4922 16.5797 16.401 16.5797 16.2188ZM0.5 17.1797C0.5 17.7995 0.661395 18.2812 0.984186 18.625C1.31218 18.974 1.77034 19.1484 2.35865 19.1484H11.5816C12.1699 19.1484 12.6255 18.974 12.9483 18.625C13.2763 18.2812 13.4403 17.7995 13.4403 17.1797V3.97656C13.4403 3.35677 13.2763 2.8724 12.9483 2.52344C12.6255 2.17448 12.1699 2 11.5816 2H2.35865C1.77034 2 1.31218 2.17448 0.984186 2.52344C0.661395 2.8724 0.5 3.35677 0.5 3.97656V17.1797ZM4.10016 17.5391V15.2188C4.10016 15.0312 4.15743 14.8828 4.27196 14.7734C4.3865 14.6589 4.53488 14.6016 4.7171 14.6016H9.16849C9.40277 14.6016 9.57979 14.6589 9.69953 14.7734C9.81928 14.8828 9.87915 15.0312 9.87915 15.2188V17.5391H4.10016ZM3.95959 6.50781V5.03906C3.95959 4.82031 4.06371 4.71094 4.27196 4.71094H5.8729C6.08115 4.71094 6.18528 4.82031 6.18528 5.03906V6.50781C6.18528 6.72135 6.08115 6.82812 5.8729 6.82812H4.27196C4.06371 6.82812 3.95959 6.72135 3.95959 6.50781ZM7.79403 6.50781V5.03906C7.79403 4.82031 7.89815 4.71094 8.1064 4.71094H9.69953C9.91299 4.71094 10.0197 4.82031 10.0197 5.03906V6.50781C10.0197 6.72135 9.91299 6.82812 9.69953 6.82812H8.1064C7.89815 6.82812 7.79403 6.72135 7.79403 6.50781ZM3.95959 9.70312V8.23438C3.95959 8.01562 4.06371 7.90625 4.27196 7.90625H5.8729C6.08115 7.90625 6.18528 8.01562 6.18528 8.23438V9.70312C6.18528 9.91667 6.08115 10.0234 5.8729 10.0234H4.27196C4.06371 10.0234 3.95959 9.91667 3.95959 9.70312ZM7.79403 9.70312V8.23438C7.79403 8.01562 7.89815 7.90625 8.1064 7.90625H9.69953C9.91299 7.90625 10.0197 8.01562 10.0197 8.23438V9.70312C10.0197 9.91667 9.91299 10.0234 9.69953 10.0234H8.1064C7.89815 10.0234 7.79403 9.91667 7.79403 9.70312ZM3.95959 12.8984V11.4219C3.95959 11.2083 4.06371 11.1016 4.27196 11.1016H5.8729C6.08115 11.1016 6.18528 11.2083 6.18528 11.4219V12.8984C6.18528 13.112 6.08115 13.2188 5.8729 13.2188H4.27196C4.06371 13.2188 3.95959 13.112 3.95959 12.8984ZM7.79403 12.8984V11.4219C7.79403 11.2083 7.89815 11.1016 8.1064 11.1016H9.69953C9.91299 11.1016 10.0197 11.2083 10.0197 11.4219V12.8984C10.0197 13.112 9.91299 13.2188 9.69953 13.2188H8.1064C7.89815 13.2188 7.79403 13.112 7.79403 12.8984Z" fill="black"/>
</g>
</svg>
