<svg width="24" height="24" viewBox="0 0 24 24" fill="none" xmlns="http://www.w3.org/2000/svg">
<path fill-rule="evenodd" clip-rule="evenodd" d="M12.4236 13.1791C12.4236 13.3964 12.2323 13.5742 12.0068 13.5742C11.7746 13.5742 11.5833 13.3964 11.5833 13.1791V6.08736L11.6174 5.13257L11.0026 5.73837L9.84116 6.90386C9.76601 6.98288 9.64987 7.02239 9.5474 7.02239C9.33561 7.02239 9.17165 6.87094 9.17165 6.66681C9.17165 6.55487 9.21947 6.47586 9.29462 6.39684L11.6994 4.13169C11.8019 4.03292 11.8975 4 12.0068 4C12.1093 4 12.205 4.03292 12.3074 4.13169L14.7054 6.39684C14.7874 6.47586 14.8352 6.55487 14.8352 6.66681C14.8352 6.87094 14.6644 7.02239 14.4526 7.02239C14.3501 7.02239 14.234 6.98288 14.1588 6.90386L12.9974 5.73837L12.3894 5.13257L12.4236 6.08736V13.1791ZM20 17.0773C20 18.3415 19.3237 19 17.9846 19H6.01537C4.68318 19 4 18.3481 4 17.0773V13.4754C4 12.9684 4.07515 12.7379 4.32792 12.4153L6.84202 9.30729C7.57301 8.41176 7.90094 8.22081 8.99402 8.22081H10.0734V8.93854H8.91204C8.38599 8.93854 8.05124 9.05707 7.66866 9.518L5.09991 12.7182C4.90863 12.9684 4.95645 13.1067 5.25705 13.1067H9.77284C10.0803 13.1067 10.2306 13.324 10.2306 13.5742V13.6071C10.2306 14.5092 10.9479 15.3521 12 15.3521C13.0521 15.3521 13.7694 14.5092 13.7694 13.6071V13.5742C13.7694 13.324 13.9197 13.1067 14.2272 13.1067H18.743C19.0436 13.1067 19.105 12.9881 18.9001 12.7182L16.3177 9.50483C15.9488 9.05048 15.614 8.93854 15.088 8.93854H13.9334V8.22081H15.006C16.0991 8.22081 16.4338 8.41176 17.1512 9.29412L19.6721 12.4153C19.9249 12.7379 20 12.9684 20 13.4754V17.0773Z" fill="#333333"/>
<path fill-rule="evenodd" clip-rule="evenodd" d="M11.638 4.15582C11.7557 4.04255 11.8733 4 12.0068 4C12.1343 4 12.2516 4.04313 12.3688 4.15585C12.3687 4.15575 12.3689 4.15595 12.3688 4.15585L14.7394 6.39447C14.8313 6.48303 14.8947 6.58239 14.8947 6.72406C14.8947 6.97902 14.6801 7.16426 14.4243 7.16426C14.3023 7.16426 14.1615 7.11814 14.0668 7.01915L12.9197 5.86838L12.4853 5.43577L12.5109 6.15147L12.5109 13.1592C12.5109 13.4249 12.2785 13.6385 12.0068 13.6385C11.7292 13.6385 11.4959 13.4258 11.4959 13.1592V6.14841L11.5215 5.43386L11.0806 5.86815L9.93323 7.01915C9.83853 7.11814 9.69774 7.16426 9.57566 7.16426C9.31764 7.16426 9.11204 6.97697 9.11204 6.72406C9.11204 6.58316 9.17473 6.4846 9.25783 6.39726L9.26126 6.39365L11.638 4.15582C11.6381 4.15571 11.6379 4.15593 11.638 4.15582ZM12.0068 4.17768C11.9242 4.17768 11.8528 4.20011 11.7681 4.28179L11.7673 4.28251L9.3921 6.51907C9.32776 6.58712 9.29645 6.64443 9.29645 6.72406C9.29645 6.87457 9.415 6.98659 9.57566 6.98659C9.65584 6.98659 9.74422 6.95489 9.79808 6.89827L9.79953 6.89675L10.9476 5.74508L11.7222 4.98213L11.6803 6.15298V13.1592C11.6803 13.3221 11.8251 13.4608 12.0068 13.4608C12.1807 13.4608 12.3265 13.323 12.3265 13.1592V6.15298L12.2845 4.98022L13.0522 5.74485L14.2019 6.89826C14.2558 6.95487 14.3442 6.98659 14.4243 6.98659C14.5872 6.98659 14.7103 6.87252 14.7103 6.72406C14.7103 6.64462 14.6793 6.58787 14.6093 6.52039C14.6092 6.5203 14.6094 6.52049 14.6093 6.52039L12.2394 4.28242L12.2387 4.28179C12.1533 4.19953 12.0817 4.17768 12.0068 4.17768ZM7.78739 8.38626C8.11453 8.2178 8.48468 8.17081 9.02867 8.17081H10.1878V9.05772H8.94763C8.6945 9.05772 8.4966 9.08632 8.31838 9.16512C8.14057 9.24373 7.97415 9.37599 7.79104 9.59642C7.79088 9.5966 7.79119 9.59623 7.79104 9.59642L5.25304 12.7573C5.20903 12.8149 5.18234 12.8616 5.16905 12.8977C5.15553 12.9345 5.15891 12.9516 5.1611 12.9572C5.1623 12.9603 5.16657 12.9698 5.19279 12.9799C5.22079 12.9907 5.26635 12.9988 5.33476 12.9988H9.79851C9.975 12.9988 10.1146 13.0621 10.2087 13.1681C10.3012 13.2722 10.3432 13.4097 10.3432 13.5496V13.5822C10.3432 14.431 11.0175 15.2176 12 15.2176C12.9825 15.2176 13.6568 14.431 13.6568 13.5822V13.5496C13.6568 13.4097 13.6988 13.2722 13.7913 13.1681C13.8854 13.0621 14.025 12.9988 14.2015 12.9988H18.6652C18.7348 12.9988 18.7824 12.9918 18.8125 12.9814C18.841 12.9717 18.8448 12.9626 18.8451 12.9617C18.8463 12.959 18.851 12.9442 18.8368 12.9064C18.8229 12.8694 18.7946 12.8201 18.7469 12.7572L16.1953 9.58321C16.1953 9.58318 16.1953 9.58325 16.1953 9.58321C16.0192 9.36643 15.8563 9.23751 15.6806 9.16133C15.5041 9.08485 15.3061 9.05772 15.0524 9.05772H13.8189V8.17081H14.9713C15.5153 8.17081 15.8869 8.2178 16.2139 8.38445C16.5392 8.5502 16.8094 8.82903 17.1644 9.26545L19.6572 12.3509C19.7861 12.5154 19.8737 12.6615 19.9277 12.8343C19.9813 13.0058 20 13.198 20 13.452V17.0112C20 17.6502 19.8289 18.1516 19.4731 18.4926C19.1174 18.8336 18.5921 19 17.9157 19H6.08435C5.41136 19 4.88615 18.8353 4.52959 18.4952C4.17288 18.155 4 17.6536 4 17.0112V13.452C4 13.198 4.01869 13.0058 4.07229 12.8343C4.12628 12.6615 4.21386 12.5154 4.34277 12.3509L4.34363 12.3498L6.82875 9.27864C7.19018 8.83601 7.46234 8.55364 7.78739 8.38626ZM6.97392 9.38819C6.97389 9.38823 6.97396 9.38815 6.97392 9.38819L4.48993 12.458C4.48978 12.4582 4.49007 12.4578 4.48993 12.458C4.36922 12.6121 4.29442 12.7397 4.24886 12.8855C4.20285 13.0328 4.1844 13.205 4.1844 13.452V17.0112C4.1844 17.6246 4.34918 18.0732 4.65932 18.369C4.96963 18.6649 5.44049 18.8223 6.08435 18.8223H17.9157C18.5628 18.8223 19.0336 18.6634 19.343 18.3667C19.6524 18.0701 19.8156 17.6215 19.8156 17.0112V13.452C19.8156 13.205 19.7971 13.0328 19.7511 12.8855C19.7056 12.7397 19.6312 12.6126 19.5105 12.4586C19.5104 12.4584 19.5107 12.4588 19.5105 12.4586L17.0192 9.37504C16.6651 8.93956 16.4153 8.68809 16.1277 8.54152C15.8419 8.39584 15.5079 8.34849 14.9713 8.34849H14.0033V8.88004H15.0524C15.3186 8.88004 15.5461 8.90823 15.7562 8.99929C15.967 9.09065 16.152 9.2416 16.3405 9.47371L18.895 12.6513C18.9481 12.7213 18.9879 12.7864 19.0103 12.8461C19.0324 12.9053 19.0413 12.9699 19.0154 13.0298C18.9887 13.0919 18.9338 13.1285 18.8742 13.1489C18.8157 13.1689 18.7443 13.1765 18.6652 13.1765H14.2015C14.0741 13.1765 13.9875 13.2205 13.9314 13.2837C13.8735 13.3488 13.8412 13.4422 13.8412 13.5496V13.5822C13.8412 14.5161 13.0974 15.3953 12 15.3953C10.9026 15.3953 10.1588 14.5161 10.1588 13.5822V13.5496C10.1588 13.4422 10.1265 13.3488 10.0686 13.2837C10.0125 13.2205 9.92591 13.1765 9.79851 13.1765H5.33476C5.25461 13.1765 5.18282 13.1675 5.1243 13.1449C5.064 13.1217 5.01256 13.0816 4.98844 13.0196C4.9653 12.9602 4.97375 12.8968 4.99526 12.8383C5.01694 12.7794 5.05505 12.7166 5.10521 12.651L5.10649 12.6494L7.64657 9.48597C7.84144 9.25126 8.02944 9.09738 8.24147 9.00363C8.45324 8.91 8.68077 8.88004 8.94763 8.88004H10.0034V8.34849H9.02867C8.49216 8.34849 8.16 8.39585 7.87431 8.54296C7.58654 8.69114 7.33501 8.94598 6.97392 9.38819Z" fill="#333333"/>
</svg>
