<svg width="24" height="24" viewBox="0 0 24 24" fill="none" xmlns="http://www.w3.org/2000/svg">
<path fill-rule="evenodd" clip-rule="evenodd" d="M19.989 17.1538C19.989 17.289 19.989 17.4658 19.8846 17.6738C19.7697 17.9338 19.5817 18.0586 19.5086 18.1106C19.2997 18.2562 19.0908 18.2978 18.9864 18.3082H5.01302C4.90858 18.2978 4.69971 18.2562 4.49084 18.1106C4.41774 18.0586 4.22976 17.9234 4.11488 17.6738C4 17.4762 4 17.289 4 17.1538C4 16.7586 4.12532 16.457 4.19843 16.301C4.21931 16.249 4.29242 16.1034 4.56395 15.7603C4.84592 15.3963 4.95036 15.3235 5.31588 14.8971C5.62918 14.5331 5.78584 14.3563 5.89027 14.1483C5.96338 14.0131 6.04692 13.8051 6.1618 13.2852C6.25579 12.8172 6.30801 12.4012 6.37067 11.6108C6.43333 10.7373 6.402 10.8101 6.44378 10.3629C6.49599 9.86371 6.55866 9.30213 6.74664 8.60536C6.89285 8.07499 7.07039 7.43021 7.5299 6.72304C7.697 6.47345 7.96853 6.06787 8.44893 5.67269C8.86667 5.3399 9.26352 5.15271 9.54549 5.05911C9.54549 3.91516 10.6421 3 11.9997 3C13.3574 3 14.4539 3.92556 14.4539 5.05911C14.7359 5.16311 15.1328 5.3399 15.5505 5.67269C16.0309 6.06787 16.3024 6.47345 16.4695 6.72304C16.929 7.43021 17.1066 8.07499 17.2528 8.60536C17.4408 9.30213 17.5034 9.85331 17.5557 10.3629C17.5974 10.8101 17.5661 10.7373 17.6288 11.6108C17.6914 12.4012 17.7436 12.8276 17.8376 13.2852C17.9525 13.8051 18.0361 14.0131 18.1092 14.1483C18.2136 14.3563 18.3702 14.5331 18.6836 14.8971C19.0491 15.3235 19.1535 15.4067 19.4355 15.7603C19.707 16.1034 19.7801 16.249 19.801 16.301C19.8741 16.457 20.0099 16.7586 19.9994 17.1538H19.989ZM9.48283 19.7849C9.48283 21.0016 10.6107 22 11.9997 22C13.3887 22 14.5166 21.012 14.5166 19.7849H9.47239H9.48283Z" fill="#111111"/>
</svg>
