<svg width="24" height="25" viewBox="0 0 24 25" fill="none" xmlns="http://www.w3.org/2000/svg">
<g id="Frame 7694">
<path id="&#244;&#128;&#136;&#166;" fill-rule="evenodd" clip-rule="evenodd" d="M12.4292 13.71C12.4292 13.9517 12.2241 14.1494 11.9824 14.1494C11.7334 14.1494 11.5283 13.9517 11.5283 13.71V5.82178L11.5649 4.75977L10.9058 5.43359L9.66064 6.72998C9.58008 6.81787 9.45557 6.86182 9.3457 6.86182C9.11865 6.86182 8.94287 6.69336 8.94287 6.46631C8.94287 6.3418 8.99414 6.25391 9.07471 6.16602L11.6528 3.64648C11.7627 3.53662 11.8652 3.5 11.9824 3.5C12.0923 3.5 12.1948 3.53662 12.3047 3.64648L14.8755 6.16602C14.9634 6.25391 15.0146 6.3418 15.0146 6.46631C15.0146 6.69336 14.8315 6.86182 14.6045 6.86182C14.4946 6.86182 14.3701 6.81787 14.2896 6.72998L13.0444 5.43359L12.3926 4.75977L12.4292 5.82178V13.71ZM20.5518 18.0459C20.5518 19.4521 19.8267 20.1846 18.3911 20.1846H5.55908C4.13086 20.1846 3.39844 19.4595 3.39844 18.0459V14.0396C3.39844 13.4756 3.479 13.2192 3.75 12.8604L6.44531 9.40332C7.229 8.40723 7.58057 8.19482 8.75244 8.19482H9.90967V8.99316H8.66455C8.10059 8.99316 7.7417 9.125 7.33154 9.6377L4.57764 13.1973C4.37256 13.4756 4.42383 13.6294 4.74609 13.6294H9.5874C9.91699 13.6294 10.0781 13.8711 10.0781 14.1494V14.186C10.0781 15.1895 10.8472 16.127 11.9751 16.127C13.103 16.127 13.8721 15.1895 13.8721 14.186V14.1494C13.8721 13.8711 14.0332 13.6294 14.3628 13.6294H19.2041C19.5264 13.6294 19.5923 13.4976 19.3726 13.1973L16.604 9.62305C16.2085 9.11768 15.8496 8.99316 15.2856 8.99316H14.0479V8.19482H15.1978C16.3696 8.19482 16.7285 8.40723 17.4976 9.38867L20.2002 12.8604C20.4712 13.2192 20.5518 13.4756 20.5518 14.0396V18.0459Z" fill="black" stroke="black" stroke-width="0.2"/>
</g>
</svg>
