<svg width="24" height="24" viewBox="0 0 24 24" fill="none" xmlns="http://www.w3.org/2000/svg">
<path fill-rule="evenodd" clip-rule="evenodd" d="M5.125 10.4709C5.12499 6.6842 8.21703 3.59961 12.0037 3.59961C15.7904 3.59961 18.875 6.6842 18.8749 10.4709C18.8749 13.1012 17.2112 15.4998 15.628 17.2809C14.0447 19.0621 12.4601 20.246 12.4601 20.246C12.1881 20.4508 11.8134 20.4508 11.5413 20.246C11.5413 20.246 9.9552 19.0621 8.37195 17.2809C6.7887 15.4998 5.12501 13.1012 5.125 10.4709ZM15.0554 10.4741C15.0554 8.78708 13.6878 7.41951 12.0008 7.41951C10.3139 7.41951 8.94628 8.78708 8.94628 10.4741C8.94628 12.161 10.3139 13.5286 12.0008 13.5286C13.6878 13.5286 15.0554 12.161 15.0554 10.4741Z" fill="#111111"/>
</svg>
