<svg width="24" height="24" viewBox="0 0 24 24" fill="none" xmlns="http://www.w3.org/2000/svg">
<path d="M5.10938 12.3516C5.10938 12.1094 5.21094 11.875 5.39062 11.7031L10.5234 6.57031C10.7266 6.375 10.9375 6.28906 11.1562 6.28906C11.6562 6.28906 12.0156 6.64062 12.0156 7.11719C12.0156 7.36719 11.9141 7.57812 11.7578 7.73438L10 9.51562L7.73438 11.5859L9.54688 11.4766H19.0156C19.5391 11.4766 19.8984 11.8359 19.8984 12.3516C19.8984 12.8594 19.5391 13.2188 19.0156 13.2188H9.54688L7.73438 13.1094L10 15.1797L11.7578 16.9609C11.9141 17.1172 12.0156 17.3281 12.0156 17.5781C12.0156 18.0547 11.6562 18.4062 11.1562 18.4062C10.9375 18.4062 10.7266 18.3203 10.5391 18.1406L5.39062 12.9922C5.21094 12.8203 5.10938 12.5859 5.10938 12.3516Z" fill="#333333"/>
</svg>
