<svg width="24" height="24" viewBox="0 0 24 24" fill="none" xmlns="http://www.w3.org/2000/svg">
<path d="M8.14258 19.5908H15.4639C16.2432 19.5908 16.8379 19.3835 17.248 18.9688C17.6582 18.554 17.8633 17.957 17.8633 17.1777V11.21H12.4697C11.6449 11.21 11.2324 10.7975 11.2324 9.97266V4.54492H8.14258C7.36784 4.54492 6.77311 4.75228 6.3584 5.16699C5.94824 5.58171 5.74316 6.17871 5.74316 6.95801V17.1777C5.74316 17.957 5.94824 18.554 6.3584 18.9688C6.77311 19.3835 7.36784 19.5908 8.14258 19.5908ZM12.7705 10.1025H17.8018C17.7881 9.9248 17.7174 9.74935 17.5898 9.57617C17.4622 9.39844 17.2982 9.20703 17.0977 9.00195L13.4268 5.29688C13.2354 5.10547 13.0508 4.94596 12.873 4.81836C12.6999 4.69076 12.5244 4.62012 12.3467 4.60645V9.67871C12.3467 9.96126 12.488 10.1025 12.7705 10.1025Z" fill="black"/>
</svg>
