<svg width="24" height="24" viewBox="0 0 24 24" fill="none" xmlns="http://www.w3.org/2000/svg">
<path d="M9.48698 19.7849H14.524C14.524 21.0016 13.3954 22 12.0055 22C10.6156 22 9.48698 21.012 9.48698 19.7849ZM19.8014 16.301C19.8014 16.301 19.7074 16.1034 19.4357 15.7603C19.1535 15.3963 19.049 15.3235 18.6833 14.8971C18.3698 14.5331 18.213 14.3563 18.1085 14.1483C18.0353 14.0131 17.9517 13.8051 17.8368 13.2852C17.7427 12.8172 17.6905 12.4012 17.6278 11.6108C17.5651 10.7373 17.5964 10.8101 17.5546 10.3629C17.5442 10.2173 17.5128 10.0509 17.4919 9.89491C17.1889 9.99891 16.8649 10.0717 16.5305 10.0717C14.8898 10.0717 13.5731 8.75096 13.5731 7.12863C13.5731 6.30706 13.9075 5.56869 14.4613 5.02791C14.4404 3.90476 13.3536 3 12.0055 3C10.6574 3 9.54969 3.92556 9.54969 5.05911C9.26753 5.16311 8.87042 5.3399 8.4524 5.67269C7.97169 6.06787 7.69998 6.47345 7.53278 6.72304C7.07296 7.43021 6.89531 8.07499 6.749 8.60536C6.5609 9.30213 6.49819 9.85331 6.44594 10.3629C6.40414 10.8101 6.43549 10.7373 6.37279 11.6108C6.31009 12.4012 6.25784 12.8276 6.16378 13.2852C6.04883 13.8051 5.96523 14.0131 5.89208 14.1483C5.78757 14.3563 5.63082 14.5331 5.31731 14.8971C4.95155 15.3235 4.84705 15.4067 4.56489 15.7603C4.29318 16.1034 4.22003 16.249 4.19913 16.301C4.12597 16.457 3.99012 16.7586 4.00057 17.1538C4.00057 17.289 4.00057 17.4658 4.10507 17.6738C4.22003 17.9338 4.40813 18.0586 4.48128 18.1106C4.69029 18.2562 4.8993 18.2978 5.0038 18.3082H18.9968C19.1013 18.2978 19.3103 18.2562 19.5193 18.1106C19.5924 18.0586 19.7805 17.9234 19.8955 17.6738C19.9895 17.4658 20 17.289 20 17.1538C20 16.7586 19.8746 16.457 19.8014 16.301Z" fill="#111111"/>
<path d="M16.5404 9.32279C17.7697 9.32279 18.7663 8.33105 18.7663 7.10769C18.7663 5.88432 17.7697 4.89258 16.5404 4.89258C15.311 4.89258 14.3145 5.88432 14.3145 7.10769C14.3145 8.33105 15.311 9.32279 16.5404 9.32279Z" fill="#FF8A00"/>
</svg>
