<svg width="24" height="24" viewBox="0 0 24 24" fill="none" xmlns="http://www.w3.org/2000/svg">
<path d="M7.43838 17.6303L7.43987 17.6312C7.65882 17.7668 7.83419 17.9446 7.96483 18.164C8.10154 18.3902 8.16994 18.6381 8.16994 18.9055C8.16994 19.1683 8.10141 19.4114 7.96456 19.6328C7.83389 19.852 7.65839 20.0275 7.43913 20.1582C7.43888 20.1583 7.43863 20.1585 7.43838 20.1586L7.38723 20.0727C7.18169 20.2 6.95656 20.2636 6.71187 20.2636C6.46227 20.2636 6.2347 20.2 6.02916 20.0727L7.43838 17.6303ZM7.43838 17.6303C7.21699 17.4986 6.97414 17.4327 6.71187 17.4327C6.44509 17.4327 6.19972 17.4984 5.97801 17.6303L5.978 17.6303L5.97652 17.6312C5.75782 17.7666 5.58034 17.9441 5.44495 18.1628L5.44491 18.1628L5.44352 18.1652C5.31207 18.3913 5.24645 18.6387 5.24645 18.9055C5.24645 19.1678 5.31227 19.4106 5.44404 19.632L5.44403 19.632L5.44495 19.6335C5.58039 19.8523 5.75809 20.0276 5.97723 20.1582L7.43838 17.6303ZM18.9019 16.0771L18.9019 16.0771C19.2564 15.7279 19.4236 15.1952 19.4236 14.5009V7.20404C19.4236 6.90829 19.4964 6.70492 19.6243 6.57496C19.7519 6.44529 19.9512 6.37174 20.2412 6.37174H20.9313C21.1161 6.37174 21.2781 6.30121 21.4131 6.16626C21.5487 6.03065 21.6186 5.86598 21.6186 5.67712C21.6186 5.49226 21.548 5.33026 21.4131 5.19532C21.2781 5.06037 21.1161 4.98984 20.9313 4.98984H20.1531C19.4498 4.98984 18.9102 5.15425 18.556 5.50311C18.2062 5.84763 18.0417 6.37814 18.0417 7.0719V14.3688C18.0417 14.6645 17.969 14.8679 17.841 14.9979C17.7134 15.1275 17.5142 15.2011 17.2241 15.2011H4.11317C3.92568 15.2011 3.76147 15.2675 3.62555 15.3977C3.48791 15.5296 3.41855 15.6954 3.41855 15.8884C3.41855 16.0812 3.48778 16.2486 3.62403 16.3849L3.62401 16.3849L3.62555 16.3863C3.76147 16.5166 3.92567 16.583 4.11317 16.583H17.3122C18.0151 16.583 18.5524 16.4213 18.9019 16.0771ZM15.8424 18.1652L15.8418 18.1643C15.7109 17.9442 15.5325 17.7662 15.3085 17.6307L15.3079 17.6303C15.0865 17.4986 14.8436 17.4327 14.5814 17.4327C14.3191 17.4327 14.0742 17.4985 13.8484 17.6298L13.8484 17.6298L13.846 17.6312C13.627 17.7668 13.4515 17.9448 13.3209 18.1643L13.3204 18.1652C13.1889 18.3913 13.1233 18.6387 13.1233 18.9055C13.1233 19.1678 13.1891 19.4106 13.3209 19.632C13.4517 19.8518 13.6275 20.0276 13.8472 20.1585C14.0731 20.295 14.3184 20.3636 14.5814 20.3636C14.844 20.3636 15.0869 20.2951 15.3082 20.1585C15.5325 20.0278 15.7109 19.852 15.8418 19.632C15.9736 19.4106 16.0394 19.1678 16.0394 18.9055C16.0394 18.6387 15.9738 18.3913 15.8424 18.1652Z" fill="#333333" stroke="#333333" stroke-width="0.2"/>
<rect x="4.03564" y="5.07422" width="12.8865" height="8.59101" rx="1" fill="#333333"/>
</svg>
