<svg width="20" height="20" viewBox="0 0 20 20" fill="none" xmlns="http://www.w3.org/2000/svg">
<path fill-rule="evenodd" clip-rule="evenodd" d="M9.04686 2.97223C9.34622 2.05092 10.6496 2.05092 10.949 2.97223L12.2321 6.92141H16.3846C17.3533 6.92141 17.756 8.16102 16.9723 8.73043L13.613 11.1711L14.8961 15.1203C15.1955 16.0416 14.141 16.8078 13.3573 16.2384L9.99792 13.7976L6.63855 16.2384C5.85484 16.8078 4.80036 16.0416 5.09971 15.1203L6.38287 11.1711L3.02351 8.73042C2.23979 8.16102 2.64257 6.92141 3.61129 6.92141H7.7637L9.04686 2.97223ZM9.99792 3.28125L8.71476 7.23042C8.58088 7.64245 8.19693 7.92141 7.7637 7.92141H3.61129L6.97066 10.3621C7.32115 10.6168 7.46781 11.0681 7.33393 11.4802L6.05077 15.4293L9.41014 12.9886C9.76062 12.734 10.2352 12.734 10.5857 12.9886L13.9451 15.4293L12.6619 11.4802C12.528 11.0681 12.6747 10.6168 13.0252 10.3621L16.3846 7.92141H12.2321C11.7989 7.92141 11.415 7.64245 11.2811 7.23042L9.99792 3.28125Z" fill="#666666"/>
</svg>
