<svg width="25" height="24" viewBox="0 0 25 24" fill="none" xmlns="http://www.w3.org/2000/svg">
<g id="Icon/QTY1">
<path id="Shape" fill-rule="evenodd" clip-rule="evenodd" d="M12.4921 3H12.5C13.1844 3 13.8144 3.3153 14.2267 3.8628C15.4633 5.49022 19.5 11.0479 19.5 14.0625C19.5 17.8953 16.3578 21 12.5 21C8.63444 21 5.5 17.8953 5.5 14.0625C5.5 11.0479 9.52881 5.49022 10.7656 3.8628C11.1777 3.3153 11.8077 3.00772 12.4921 3ZM12.0625 5.21307C9.96558 7.85976 7.8543 11.1536 7.5 13H17.5C17.1456 11.1536 15.0343 7.85976 12.9375 5.21307C12.7145 4.93558 12.296 4.92245 12.0625 5.21307Z" />
</g>
</svg>
